<svg xmlns="http://www.w3.org/2000/svg" xml:space="preserve" id="Layer_1" x="0" y="0" viewBox="0 0 482.4 387.1"><style>.st84{enable-background:new}</style><g id="Layer_2_00000122712628578245290720000005226046773052013445_"><g id="Layer_1-2"><linearGradient id="SVGID_1_" x1="237.46" x2="241.47" y1="266.63" y2="247.09" gradientTransform="rotate(-2.55 8819.5 99.7)scale(1 -1)" gradientUnits="userSpaceOnUse"><stop offset="0" style="stop-color:#00adee"/><stop offset=".42" style="stop-color:#15477c"/><stop offset="1" style="stop-color:#062036"/></linearGradient><path d="M264.2 122.8c-12.2-3.2-22.4-3.7-23.6-1.8-1.5 2.4 2.2 6.5 2.2 6.5-31.6.6-65.3 19-65.3 19 10.5-10.9 10.2-16.5 10.2-16.5-5 7.4-20.4 20.9-22.6 18.2q-1.65 3.75-3.3 8.7c3.9-.7 8-1.2 12.1-1.5 35.4-23.9 51.5-23.2 83.2-24.8 43-2.1 50-18.1 50-18.1-9.8 7.4-27.9 14.2-42.9 10.3" data-index="0" style="fill:url(#SVGID_1_);opacity:1"/><radialGradient id="SVGID_00000108285611491171172380000009434412196803831716_" cx="282.52" cy="258.23" r="23.48" gradientTransform="rotate(-2.55 8819.5 99.7)scale(1 -1)" gradientUnits="userSpaceOnUse"><stop offset="0" style="stop-color:#062036"/><stop offset=".34" style="stop-color:#00493e"/><stop offset="1" style="stop-color:#fff"/></radialGradient><path d="M306.8 113.2s-.6.9-1.9 2.2-3.4 3.1-6 4.8c-2.7 1.7-6 3.4-9.8 4.9-1.9.7-3.8 1.3-5.9 1.9-2 .6-4.1 1-6.2 1.4q-3.15.6-6.3.9l-6.1.6c-2 .1-3.9.3-5.8.3s-3.6.1-5.1.1h-4.4c-1.3 0-2.4-.1-3.4-.1-1.9-.1-2.9-.2-2.9-.2s1.1.1 2.9.1c1.9 0 4.5 0 7.7-.1 1.6 0 3.3-.1 5.1-.2s3.7-.3 5.7-.4l6.1-.6c2.1-.2 4.2-.5 6.2-.9 2.1-.4 4.2-.8 6.2-1.4 2-.5 4-1.2 5.8-1.9a56 56 0 0 0 9.8-4.7c2.7-1.7 4.8-3.3 6.1-4.6 1.6-1.2 2.2-2.1 2.2-2.1" data-index="1" style="opacity:.4;fill:url(#SVGID_00000108285611491171172380000009434412196803831716_)"/><radialGradient id="SVGID_00000158014865376858434000000007783760521381182647_" cx="288.42" cy="266.51" r="22.1" gradientTransform="matrix(1 0 0 -1 0 387.28)" gradientUnits="userSpaceOnUse"><stop offset="0" style="stop-color:#062036"/><stop offset=".34" style="stop-color:#00493e"/><stop offset="1" style="stop-color:#fff"/></radialGradient><path d="m306.2 113.9-.5.5c-.3.3-.9.8-1.5 1.3-.3.3-.7.6-1.1.9s-.9.6-1.4 1-1 .7-1.6 1c-.6.4-1.2.7-1.9 1.1-.7.3-1.4.7-2.1 1.1-.7.3-1.5.7-2.3 1-.4.2-.8.4-1.2.5-.4.2-.8.3-1.2.5-.8.3-1.7.7-2.6 1s-1.8.6-2.7.8c-.5.1-.9.3-1.4.4s-.9.2-1.4.4c-1.9.5-3.8 1-5.8 1.3-1 .2-2 .4-2.9.5-1 .2-2 .3-2.9.4-2 .2-3.9.5-5.7.6-1.9.1-3.7.3-5.4.3h-6.9c-.7 0-1.3-.1-1.9-.1-1.2-.1-2.3-.1-3.1-.2-1.7-.1-2.7-.1-2.7-.1s1 0 2.7.1c.9 0 1.9.1 3.1.1.6 0 1.2 0 1.9.1h2.1c1.5 0 3.1-.1 4.8-.1 1.7-.1 3.5-.2 5.4-.4 1.9-.1 3.8-.4 5.7-.6 1-.1 2-.2 2.9-.4l2.9-.6c2-.3 3.9-.8 5.8-1.3.5-.1 1-.2 1.4-.4s.9-.3 1.4-.4c.9-.3 1.8-.6 2.7-.8.9-.3 1.7-.6 2.6-.9.4-.2.8-.3 1.2-.5s.8-.3 1.2-.5c.8-.3 1.5-.7 2.3-1 .7-.4 1.4-.7 2.1-1.1.7-.3 1.3-.7 1.9-1s1.1-.6 1.6-1c.5-.3 1-.6 1.4-.9s.8-.6 1.2-.8c.7-.5 1.2-1 1.6-1.3.1-.3.3-.5.3-.5" data-index="2" style="opacity:.4;fill:url(#SVGID_00000158014865376858434000000007783760521381182647_)"/><radialGradient id="SVGID_00000084488030197125138510000016282458413580768148_" cx="287.62" cy="265.7" r="19.43" gradientTransform="matrix(1 0 0 -1 0 387.28)" gradientUnits="userSpaceOnUse"><stop offset="0" style="stop-color:#062036"/><stop offset=".34" style="stop-color:#00493e"/><stop offset="1" style="stop-color:#fff"/></radialGradient><path d="M302.1 117s-.7.5-2.1 1.2c-.7.3-1.5.8-2.4 1.2-.5.2-1 .5-1.5.7s-1.1.5-1.7.7q-1.8.75-3.9 1.5c-.7.2-1.4.5-2.2.7-.7.2-1.5.5-2.3.7-1.6.4-3.2.9-4.9 1.3l-2.5.6c-.9.2-1.7.3-2.6.5-1.7.3-3.4.5-5.1.7-.4.1-.9.1-1.3.2-.4 0-.8.1-1.3.1-.8.1-1.7.1-2.5.2-.4 0-.8.1-1.2.1h-5.7c-.7-.1-1.4-.1-2-.1-1.3-.1-2.5-.1-3.5-.3-1.1-.2-2-.3-2.7-.4-1.5-.2-2.4-.3-2.4-.3s.9.1 2.4.2q1.2.15 2.7.3c.5.1 1.1.1 1.7.1s1.2.1 1.9.1 1.3.1 2 .1c.7.1 1.4 0 2.2 0h3.5c.4 0 .8-.1 1.2-.1.8-.1 1.6-.1 2.5-.2.4 0 .8-.1 1.2-.1s.8-.1 1.3-.2c1.7-.2 3.4-.4 5.1-.7.9-.2 1.7-.3 2.5-.4.8-.2 1.7-.4 2.5-.5 1.7-.3 3.3-.8 4.8-1.2.8-.2 1.5-.5 2.3-.7.7-.2 1.5-.4 2.2-.7 1.4-.5 2.7-.9 3.9-1.4s2.3-.9 3.3-1.3 1.8-.8 2.5-1.1c1.4-1 2.1-1.4 2.1-1.5" data-index="3" style="opacity:.4;fill:url(#SVGID_00000084488030197125138510000016282458413580768148_)"/><radialGradient id="SVGID_00000163043349436904422530000005959206115894426767_" cx="281.76" cy="261.74" r="23.49" gradientTransform="matrix(1 0 0 -1 0 387.28)" gradientUnits="userSpaceOnUse"><stop offset="0" style="stop-color:#062036"/><stop offset=".34" style="stop-color:#00493e"/><stop offset="1" style="stop-color:#fff"/></radialGradient><path d="M245.6 123.7s.7 0 1.8-.1c.6 0 1.3 0 2.1.1s1.7.1 2.7.2c2 .2 4.3.4 6.7.7l3.8.3c1.3.1 2.6.1 3.9.1 1.3.1 2.6 0 3.9 0 1.3-.1 2.6-.1 3.8-.2 1.2-.2 2.4-.2 3.5-.4s2.2-.3 3.1-.5c1-.2 1.9-.3 2.6-.5.8-.2 1.5-.3 2-.5 1.1-.3 1.8-.4 1.8-.4s-.6.2-1.8.5c-.6.2-1.2.3-2 .6-.8.2-1.7.4-2.6.6-1 .2-2 .4-3.1.6s-2.3.3-3.5.5l-3.8.3c-1.3 0-2.6.1-4 0-1.3 0-2.6-.1-4-.2l-3.8-.3c-2.5-.2-4.8-.6-6.7-.8q-1.5-.15-2.7-.3c-.8-.1-1.5-.1-2.1-.1-.9-.2-1.5-.2-1.6-.2" data-index="4" style="opacity:.4;fill:url(#SVGID_00000163043349436904422530000005959206115894426767_)"/><radialGradient id="SVGID_00000140733893039018468360000015906980030566058418_" cx="278.27" cy="264.51" r="25.91" gradientTransform="matrix(1 0 0 -1 0 387.28)" gradientUnits="userSpaceOnUse"><stop offset="0" style="stop-color:#062036"/><stop offset=".34" style="stop-color:#00493e"/><stop offset="1" style="stop-color:#fff"/></radialGradient><path d="M242.7 121.2s.4 0 1.2-.1h1.4c.6 0 1.2 0 1.8.1s1.4.1 2.2.2 1.6.1 2.4.3c1.7.2 3.4.5 5.2.8.9.2 1.8.3 2.6.5.9.2 1.7.3 2.5.5s1.6.3 2.4.4q1.2.15 2.1.3c.7.1 1.3.2 1.8.2.5.1 1 .1 1.4.1.8.1 1.2.1 1.2.1h-1.2c-.4 0-.9 0-1.4-.1-.5 0-1.2-.1-1.8-.1-.7-.1-1.4-.1-2.2-.2s-1.6-.2-2.4-.4c-.8-.1-1.7-.3-2.6-.4-.9-.2-1.7-.3-2.6-.5-1.8-.3-3.5-.6-5.2-.9l-2.4-.3c-.8-.1-1.5-.2-2.1-.2-.7-.1-1.3-.1-1.8-.2s-1-.1-1.4-.1z" data-index="5" style="opacity:.4;fill:url(#SVGID_00000140733893039018468360000015906980030566058418_)"/><linearGradient id="SVGID_00000129200459336369279420000009606781223056567711_" x1="243.2" x2="245.2" y1="255.11" y2="245.35" gradientTransform="rotate(-2.55 8819.5 99.7)scale(1 -1)" gradientUnits="userSpaceOnUse"><stop offset="0" style="stop-color:#2074ba"/><stop offset=".42" style="stop-color:#15477c"/><stop offset="1" style="stop-color:#062036"/></linearGradient><path d="M255.9 128c-38.6 1.8-71.4 13.8-87.5 27.9l5.5-.6c34.7-23.7 51.5-23.2 83.2-24.8 43-2.1 50-18.1 50-18.1s-10.2 13.8-51.2 15.6" data-index="6" style="opacity:1;fill:url(#SVGID_00000129200459336369279420000009606781223056567711_)"/><linearGradient id="SVGID_00000168819403135970452880000004855407134204444600_" x1="214.02" x2="221.4" y1="303.72" y2="294.93" gradientTransform="rotate(-2.55 8819.5 99.7)scale(1 -1)" gradientUnits="userSpaceOnUse"><stop offset="0" style="stop-color:#2074ba"/><stop offset=".42" style="stop-color:#15477c"/><stop offset="1" style="stop-color:#062036"/></linearGradient><path d="M244.8 47.1c-3.1 11.8-17.5 24.4-30.2 28.5-9.7 3.2-14.5 5.9-14.4 7.3.1 2.2 6.6 3.6 6.6 3.6-13.6 6-27.2 29.1-27.2 29.1.9-4 .1-6.9-.4-8.4-2.1 3.7-4.2 7.3-6 11.8.7 1.9 1.4 3.4 1.9 4.8a50 50 0 0 0 7-3.2c2.8-6.6 11.1-23 26.8-31.8 40.7-22.8 35.9-41.7 35.9-41.7" data-index="7" style="fill:url(#SVGID_00000168819403135970452880000004855407134204444600_);opacity:1"/><radialGradient id="SVGID_00000181065066236533651880000005424691365398839443_" cx="89.48" cy="448.5" r="18.92" gradientTransform="rotate(-35.28 970.13 -406.8)scale(1 -1)" gradientUnits="userSpaceOnUse"><stop offset="0" style="stop-color:#062036"/><stop offset=".34" style="stop-color:#00493e"/><stop offset="1" style="stop-color:#fff"/></radialGradient><path d="M244.9 48s0 .9-.4 2.3c-.3 1.5-.9 3.5-2 5.9-1.1 2.3-2.6 5-4.5 7.5-1 1.3-2 2.6-3.1 3.8-1.1 1.3-2.3 2.5-3.6 3.7s-2.6 2.3-3.9 3.4c-1.3 1-2.6 2.1-3.9 3.1-1.3.9-2.5 1.9-3.8 2.7-1.2.8-2.4 1.7-3.4 2.3-1.1.7-2.1 1.3-3 1.9s-1.7 1-2.3 1.4c-1.3.8-2.1 1.2-2.1 1.2s.7-.4 2-1.2 3.1-2 5.2-3.4c1.1-.7 2.2-1.5 3.4-2.4s2.4-1.8 3.7-2.8 2.6-2 3.9-3.1 2.6-2.2 3.8-3.4l3.6-3.6c1.1-1.2 2.2-2.5 3.1-3.8 1.9-2.6 3.5-5.1 4.6-7.4s1.8-4.3 2.2-5.8.4-2.3.5-2.3" data-index="8" style="opacity:.4;fill:url(#SVGID_00000181065066236533651880000005424691365398839443_)"/><radialGradient id="SVGID_00000056423383058946318690000008792628593652623525_" cx="90.36" cy="448.83" r="17.81" gradientTransform="rotate(-35.28 970.13 -406.8)scale(1 -1)" gradientUnits="userSpaceOnUse"><stop offset="0" style="stop-color:#062036"/><stop offset=".34" style="stop-color:#00493e"/><stop offset="1" style="stop-color:#fff"/></radialGradient><path d="M244.7 48.7s0 .2-.1.6-.2.9-.4 1.6c-.1.3-.2.7-.4 1.1s-.3.8-.5 1.3-.4.9-.6 1.4-.5 1-.8 1.5-.6 1.1-.9 1.6c-.4.5-.7 1.1-1.1 1.7l-.6.9-.6.9c-.4.6-.9 1.2-1.3 1.8l-1.5 1.8c-.2.3-.5.6-.8.9s-.5.6-.8.9c-1.1 1.2-2.1 2.3-3.4 3.4-.6.6-1.2 1.1-1.8 1.6-.6.6-1.2 1-1.8 1.5-1.2 1-2.4 2-3.6 2.9s-2.4 1.8-3.5 2.5c-1.2.8-2.2 1.5-3.3 2.1-.5.3-1 .7-1.4.9-.5.3-.9.5-1.4.8-.9.5-1.6.9-2.2 1.2l-1.9 1.1 1.9-1.1c.6-.4 1.3-.8 2.2-1.3.4-.2.9-.5 1.3-.8.5-.3.9-.6 1.4-1 1-.7 2.1-1.4 3.2-2.2s2.3-1.7 3.5-2.6 2.4-1.9 3.6-2.9c.6-.5 1.2-1 1.8-1.6s1.2-1.1 1.7-1.6c1.2-1.1 2.3-2.2 3.4-3.4.3-.3.6-.6.8-.9s.5-.6.8-.9c.5-.6 1-1.2 1.5-1.7.4-.6.9-1.2 1.3-1.8.2-.3.4-.6.6-.8l.6-.9c.4-.6.8-1.1 1.1-1.7s.6-1.1.9-1.6.6-1 .8-1.5.5-.9.7-1.4c.2-.4.4-.9.6-1.2.1-.4.3-.8.4-1.1.2-.7.4-1.2.5-1.5s.1-.5.1-.5" data-index="9" style="opacity:.4;fill:url(#SVGID_00000056423383058946318690000008792628593652623525_)"/><radialGradient id="SVGID_00000016774419630154741030000003234642211630033293_" cx="89.71" cy="448.18" r="15.65" gradientTransform="rotate(-35.28 970.13 -406.8)scale(1 -1)" gradientUnits="userSpaceOnUse"><stop offset="0" style="stop-color:#062036"/><stop offset=".34" style="stop-color:#00493e"/><stop offset="1" style="stop-color:#fff"/></radialGradient><path d="M243.3 52.6s-.3.6-.9 1.7l-1.1 1.9c-.2.4-.5.7-.7 1.2l-.9 1.2c-.6.9-1.3 1.8-2 2.7-.4.5-.8 1-1.1 1.4l-1.2 1.5-2.7 3-1.5 1.5c-.5.5-1 .9-1.5 1.4-1 1-2.1 1.8-3.2 2.7-.3.2-.5.4-.8.7-.3.2-.6.4-.8.6-.5.4-1.1.8-1.6 1.2-.3.2-.5.4-.8.6s-.5.3-.8.5c-.5.3-1.1.7-1.6 1s-1 .7-1.5.9c-.5.3-1 .5-1.4.8-.9.5-1.7 1-2.5 1.3s-1.4.7-2 .9c-1.1.5-1.7.8-1.7.8s.6-.3 1.7-.9c.5-.3 1.2-.6 2-1 .4-.2.8-.4 1.2-.7.4-.2.8-.5 1.3-.8.4-.3.9-.5 1.4-.8l1.5-.9c.5-.3 1-.7 1.5-1 .3-.2.5-.3.8-.5s.5-.4.8-.6c.5-.4 1.1-.8 1.6-1.2.3-.2.5-.4.8-.6s.5-.4.8-.7c1-.9 2.1-1.7 3.1-2.7.5-.5 1-.9 1.5-1.4l1.5-1.5c1-1 1.9-2 2.7-2.9l1.2-1.5c.4-.5.8-1 1.2-1.4.7-1 1.4-1.8 2-2.7.6-.8 1.2-1.6 1.6-2.3q.75-1.05 1.2-1.8c.6-1 .9-1.6.9-1.6" data-index="10" style="opacity:.4;fill:url(#SVGID_00000016774419630154741030000003234642211630033293_)"/><radialGradient id="SVGID_00000165936197742670656290000014496455700391514761_" cx="85" cy="444.99" r="18.92" gradientTransform="rotate(-35.28 970.13 -406.8)scale(1 -1)" gradientUnits="userSpaceOnUse"><stop offset="0" style="stop-color:#062036"/><stop offset=".34" style="stop-color:#00493e"/><stop offset="1" style="stop-color:#fff"/></radialGradient><path d="M207.9 81.7s.4-.3 1.2-.8c.4-.2.9-.5 1.4-.9.6-.3 1.2-.7 1.9-1.1 1.4-.7 3.1-1.6 4.9-2.5.9-.4 1.8-.9 2.7-1.4s1.8-1 2.7-1.6c.9-.5 1.8-1.2 2.7-1.7.9-.6 1.7-1.2 2.5-1.8s1.6-1.2 2.2-1.8c.7-.6 1.4-1.1 1.9-1.7.6-.6 1.1-1.1 1.6-1.5.4-.5.9-.9 1.2-1.2.6-.7 1-1 1-1s-.4.4-1 1.1c-.3.3-.7.8-1.1 1.3-.5.5-1 1-1.5 1.6-.6.6-1.2 1.1-1.9 1.8l-2.2 1.9c-.8.6-1.6 1.2-2.5 1.8s-1.7 1.2-2.7 1.8c-.9.6-1.8 1.1-2.8 1.6-.9.5-1.8 1-2.7 1.4-1.8.9-3.5 1.7-4.9 2.4-.7.3-1.4.7-1.9 1-.6.3-1.1.6-1.5.8-.7.3-1.1.5-1.2.5" data-index="11" style="opacity:1;fill:url(#SVGID_00000165936197742670656290000014496455700391514761_)"/><radialGradient id="SVGID_00000021095483859140398690000014415423578225989045_" cx="81.18" cy="464.61" r="24" gradientTransform="rotate(141.97 139.72 320.62)scale(-1 1)" gradientUnits="userSpaceOnUse"><stop offset="0" style="stop-color:#062036"/><stop offset=".34" style="stop-color:#00493e"/><stop offset="1" style="stop-color:#fff"/></radialGradient><path d="M205.8 81.6s.3-.3.9-.7c.3-.2.6-.5 1.1-.8s.9-.6 1.4-.9a46 46 0 0 0 1.7-1.1c.6-.3 1.3-.8 2-1.1 1.4-.7 2.9-1.5 4.4-2.2.8-.3 1.5-.7 2.3-1s1.5-.7 2.2-1 1.4-.7 2-.9c.6-.3 1.2-.7 1.8-.9s1.1-.6 1.5-.8.8-.5 1.1-.7c.6-.4 1-.6 1-.6l-.2.2c-.1.1-.4.3-.7.5s-.7.4-1.1.7-.9.6-1.4.9-1.1.7-1.7 1-1.3.7-2 1-1.4.7-2.2 1c-.7.3-1.5.7-2.2 1-1.5.7-3 1.4-4.4 2.1-.7.3-1.4.7-2 1s-1.2.7-1.8 1-1 .6-1.4.9c-.4.2-.8.5-1.1.7-.8.5-1.2.7-1.2.7" data-index="12" style="opacity:.4;fill:url(#SVGID_00000021095483859140398690000014415423578225989045_)"/><linearGradient id="SVGID_00000073706557714601263880000012532335035279947706_" x1="218.27" x2="223.73" y1="302.23" y2="295.73" gradientTransform="rotate(-2.55 8819.5 99.7)scale(1 -1)" gradientUnits="userSpaceOnUse"><stop offset="0" style="stop-color:#2074ba"/><stop offset=".42" style="stop-color:#15477c"/><stop offset="1" style="stop-color:#062036"/></linearGradient><path d="M216.3 81.1c-26.4 15.7-33.2 31.5-36.8 40.8.7-.3 1.4-.7 2.1-1.1.1-.1.3-.2.4-.2 2.8-6.6 11.1-23 26.8-31.8 40.7-22.7 35.9-41.7 35.9-41.7s1.3 16.3-28.4 34" data-index="13" style="opacity:.3;fill:url(#SVGID_00000073706557714601263880000012532335035279947706_)"/><linearGradient id="SVGID_00000026146379277468915940000010360704247936007322_" x1="113.5" x2="126.55" y1="287.34" y2="287.34" gradientTransform="rotate(175.3 3.46 197.88)scale(-.99996 .99996)" gradientUnits="userSpaceOnUse"><stop offset="0" style="stop-color:#2074ba"/><stop offset=".42" style="stop-color:#15477c"/><stop offset="1" style="stop-color:#062036"/></linearGradient><path d="M146.5 144.8s-.7-3.5-1.8-8.2c-20.3-23.1-14.6-33.5-21.7-57-7.3-24.4-18.7-28.2-18.7-28.2 8.9 8.3 13.4 21.8 11.2 34.3-1.7 9.9.4 17.6 2.6 18.7 2.7 1.4 6-3.5 6-3.5 1.1 8.2 4.3 18 6.6 24.4 6.8 5.6 12.4 12.1 15.8 19.5" data-index="14" style="fill:url(#SVGID_00000026146379277468915940000010360704247936007322_)"/><radialGradient id="SVGID_00000084492504511150460800000003494647142758772375_" cx="326.58" cy="861.21" r="18.92" gradientTransform="matrix(-.1489 -.9585 -.9888 .149 1015.2 259.47)" gradientUnits="userSpaceOnUse"><stop offset="0" style="stop-color:#062036"/><stop offset=".34" style="stop-color:#00493e"/><stop offset="1" style="stop-color:#fff"/></radialGradient><path d="M105.5 52.2s.8.4 1.9 1.3c1.2.9 2.7 2.3 4.3 4.3s3.3 4.4 4.7 7.2a59 59 0 0 1 3.7 9.1c.5 1.6.9 3.2 1.3 4.8.3 1.6.7 3.2 1 4.7s.6 3 .8 4.4l.6 4c.2 1.2.3 2.4.4 3.4s.2 1.9.2 2.6c.1 1.4.1 2.3.1 2.3s0-.8-.2-2.3c-.1-1.4-.4-3.5-.7-6-.2-1.2-.4-2.6-.6-4s-.5-2.9-.8-4.4-.7-3.1-1-4.7c-.4-1.6-.8-3.2-1.3-4.8s-1-3.2-1.6-4.7-1.3-3-2-4.4c-1.4-2.8-3-5.2-4.6-7.2s-3.1-3.4-4.2-4.4c-1.3-.8-2-1.2-2-1.2" data-index="15" style="opacity:.4;fill:url(#SVGID_00000084492504511150460800000003494647142758772375_)"/><radialGradient id="SVGID_00000010307704907867169530000001773810445047728805_" cx="327.46" cy="861.55" r="17.81" gradientTransform="matrix(-.1489 -.9585 -.9888 .149 1015.2 259.47)" gradientUnits="userSpaceOnUse"><stop offset="0" style="stop-color:#062036"/><stop offset=".34" style="stop-color:#00493e"/><stop offset="1" style="stop-color:#fff"/></radialGradient><path d="M106.1 52.6s.2.1.4.3c.3.2.7.6 1.2 1.1l.8.8c.3.3.6.6.9 1 .3.3.6.8 1 1.2l1 1.3c.3.5.7 1 1.1 1.5.3.5.7 1.1 1 1.7.2.3.4.6.5.9.2.3.3.6.5.9.3.6.7 1.3 1 1.9.3.7.6 1.3.9 2 .2.3.3.7.5 1s.3.7.4 1.1c.5 1.4 1.1 2.9 1.6 4.4.2.7.4 1.5.7 2.2l.6 2.2c.3 1.5.7 2.9.9 4.4.2 1.4.5 2.8.7 4.1s.3 2.6.4 3.7c.1.6.1 1.1.2 1.7 0 .5.1 1 .1 1.5.1.9.1 1.8.1 2.4.1 1.3.1 2.1.1 2.1s-.1-.8-.2-2.1c-.1-.7-.1-1.5-.2-2.4 0-.5-.1-1-.1-1.5-.1-.5-.1-1.1-.2-1.7-.2-1.2-.3-2.4-.5-3.7s-.5-2.7-.7-4.1-.6-2.9-1-4.4c-.2-.7-.3-1.5-.6-2.2-.2-.7-.5-1.5-.7-2.2-.4-1.5-1-2.9-1.5-4.4-.1-.4-.3-.7-.4-1.1-.2-.3-.3-.7-.5-1-.3-.7-.6-1.4-.9-2-.3-.7-.7-1.3-1-1.9-.2-.3-.3-.6-.5-.9s-.3-.6-.5-.9c-.3-.6-.7-1.1-1-1.7-.3-.5-.7-1-1-1.5s-.7-.9-1-1.4l-.9-1.2c-.3-.4-.6-.7-.9-1s-.5-.6-.8-.8c-.5-.5-.9-.9-1.2-1.1-.2-.1-.3-.2-.3-.2" data-index="16" style="opacity:.4;fill:url(#SVGID_00000010307704907867169530000001773810445047728805_)"/><radialGradient id="SVGID_00000150070758814729276810000011403864196290181811_" cx="326.82" cy="860.89" r="15.65" gradientTransform="matrix(-.1489 -.9585 -.9888 .149 1015.2 259.47)" gradientUnits="userSpaceOnUse"><stop offset="0" style="stop-color:#062036"/><stop offset=".34" style="stop-color:#00493e"/><stop offset="1" style="stop-color:#fff"/></radialGradient><path d="M108.9 55.5s.4.5 1.1 1.5c.3.5.8 1.1 1.2 1.8.2.3.4.7.7 1.1.2.4.5.8.7 1.3.5.9 1 1.9 1.6 2.9.3.5.5 1.1.8 1.6.3.6.5 1.1.8 1.7.5 1.2 1 2.4 1.4 3.7.2.6.5 1.3.7 1.9.2.7.4 1.3.6 1.9.4 1.3.7 2.6 1 3.9.1.3.2.7.2 1 .1.3.1.7.2 1l.3 1.9c.1.3.1.6.2.9 0 .3.1.6.1.9.1.6.1 1.2.2 1.8s.1 1.1.2 1.7c0 .6 0 1.1.1 1.6 0 1 .1 1.9.1 2.8 0 .8-.1 1.5-.1 2.1-.1 1.2-.1 1.8-.1 1.8v-4c0-.4 0-.8-.1-1.3s-.1-.9-.1-1.4-.1-1-.1-1.6c0-.5-.1-1.1-.2-1.7s-.2-1.2-.2-1.8c0-.3-.1-.6-.1-.9-.1-.3-.1-.6-.2-.9-.1-.6-.2-1.2-.3-1.9-.1-.3-.1-.6-.2-1-.1-.3-.2-.6-.2-1a56 56 0 0 0-1.6-5.8c-.2-.6-.4-1.3-.7-1.9-.4-1.3-.9-2.5-1.4-3.6-.2-.6-.5-1.2-.7-1.7s-.5-1.1-.7-1.6c-.5-1-1-2-1.5-2.9s-.9-1.7-1.3-2.4-.8-1.3-1.1-1.8z" data-index="17" style="opacity:.4;fill:url(#SVGID_00000150070758814729276810000011403864196290181811_)"/><radialGradient id="SVGID_00000087395066037821801500000003607268298463832214_" cx="322.1" cy="857.71" r="18.92" gradientTransform="matrix(-.1489 -.9585 -.9888 .149 1015.2 259.47)" gradientUnits="userSpaceOnUse"><stop offset="0" style="stop-color:#062036"/><stop offset=".34" style="stop-color:#00493e"/><stop offset="1" style="stop-color:#fff"/></radialGradient><path d="M119 98.7s-.1-.5-.2-1.4c0-.4-.1-1-.1-1.6s-.1-1.3-.1-2.1v-5.3c0-1 0-2-.1-3s-.1-2-.2-3.1l-.3-3c-.2-1-.3-2-.5-2.9s-.4-1.9-.6-2.7-.4-1.7-.7-2.4c-.2-.7-.4-1.4-.6-2q-.3-.9-.6-1.5l-.5-1.3s.2.5.6 1.3q.3.6.6 1.5c.2.6.4 1.3.7 2s.5 1.6.7 2.4c.3.8.4 1.8.7 2.7.2.9.4 1.9.5 2.9s.3 2 .4 3.1c.1 1 .1 2.1.2 3.1 0 1 .1 2 .1 3 0 1.9-.1 3.7-.1 5.3v2.1c0 .6 0 1.2.1 1.6z" data-index="18" style="opacity:.4;fill:url(#SVGID_00000087395066037821801500000003607268298463832214_)"/><radialGradient id="SVGID_00000117676737069949154920000005685201025338867636_" cx="336.22" cy="865.57" r="24" gradientTransform="matrix(-.1964 -.9499 -.9808 .195 1031.78 228.93)" gradientUnits="userSpaceOnUse"><stop offset="0" style="stop-color:#062036"/><stop offset=".34" style="stop-color:#00493e"/><stop offset="1" style="stop-color:#fff"/></radialGradient><path d="M117.9 100.5s-.1-.4-.2-1.1c-.1-.3-.2-.8-.2-1.2-.1-.5-.2-1-.2-1.6-.1-.6-.1-1.2-.2-1.9 0-.7-.1-1.4-.1-2.2v-4.7c0-.8.1-1.6.1-2.4.1-.8.1-1.6.1-2.3s0-1.5.1-2.2c0-.7 0-1.3-.1-1.9 0-.6 0-1.2-.1-1.6 0-.5-.1-.9-.1-1.3 0-.7-.1-1.1-.1-1.1s0 .1.1.3c0 .2.1.5.1.8s.1.8.2 1.3.1 1 .2 1.6.1 1.3.1 1.9v4.5c0 .8-.1 1.6-.1 2.4-.1 1.6-.1 3.2-.1 4.7v2.2c0 .7.1 1.3.1 1.9s.1 1.2.1 1.6c0 .5.1.9.1 1.3.2.6.3 1 .2 1" data-index="19" style="opacity:.4;fill:url(#SVGID_00000117676737069949154920000005685201025338867636_)"/><linearGradient id="SVGID_00000060711405142178473210000012223982700995634308_" x1="113.5" x2="126.55" y1="287.34" y2="287.34" gradientTransform="rotate(175.3 3.46 197.88)scale(-.99996 .99996)" gradientUnits="userSpaceOnUse"><stop offset="0" style="stop-color:#2074ba"/><stop offset=".42" style="stop-color:#15477c"/><stop offset="1" style="stop-color:#062036"/></linearGradient><path d="M120.8 81.4c5.3 20.8 6.3 35 13.4 47 5.2 4.9 9.5 10.3 12.3 16.4 0 0-.7-3.5-1.8-8.2-20.3-23.1-14.6-33.5-21.7-57-7.3-24.4-18.7-28.2-18.7-28.2s10.1 5.1 16.5 30" data-index="20" style="opacity:.3;fill:url(#SVGID_00000060711405142178473210000012223982700995634308_)"/><radialGradient id="SVGID_00000113335256945923713650000016892864708513140373_" cx="170.03" cy="256.25" r="65.24" gradientTransform="rotate(199.7 -57.6 97.37)scale(-1.27 .64)" gradientUnits="userSpaceOnUse"><stop offset=".16" style="stop-color:#e89d23"/><stop offset=".63" style="stop-color:#e45025"/><stop offset=".73" style="stop-color:#da4724"/><stop offset=".89" style="stop-color:#bf3223"/><stop offset="1" style="stop-color:#a92023"/></radialGradient><path d="M88.3 89.7c-26-14.6-41.7-24.2-41.7-24.2 9 31.7 44.8 54.3 44.8 54.3 7.8 6 34.8 9.6 50.2 22.5 3.7 3.1 6.2 5.9 7.8 8.4-.9-3.4-2.2-7.6-2.2-7.6-4.6-17.1-33-38.8-58.9-53.4" data-index="21" style="fill:url(#SVGID_00000113335256945923713650000016892864708513140373_);opacity:1"/><radialGradient id="SVGID_00000137827905180728184900000015147017914933349528_" cx="132.47" cy="228.89" r="32.82" gradientTransform="rotate(199.7 -57.6 97.37)scale(-1.27 .64)" gradientUnits="userSpaceOnUse"><stop offset="0" style="stop-color:#e84724"/><stop offset=".32" style="stop-color:#e99123"/><stop offset="1" style="stop-color:#fff"/></radialGradient><path d="M46.6 65.6s.4.8 1.1 2.3c.8 1.5 1.9 3.7 3.5 6.2.8 1.3 1.6 2.7 2.6 4.2s2.1 3 3.2 4.7c1.2 1.6 2.4 3.3 3.7 5q1.95 2.55 4.2 5.1c.7.9 1.5 1.7 2.2 2.6.8.8 1.5 1.7 2.3 2.5s1.6 1.7 2.4 2.5l2.4 2.4c.8.8 1.6 1.6 2.4 2.3.8.8 1.6 1.5 2.4 2.2s1.6 1.4 2.3 2.1c.8.7 1.5 1.3 2.3 1.9l2.1 1.8 1.9 1.6c1.3 1 2.3 1.8 3.3 2.5 1.9 1.4 2.9 2.2 2.9 2.2s-1.1-.8-3.1-2.1c-1-.7-2.1-1.5-3.4-2.5s-2.8-2.1-4.3-3.3c-.8-.6-1.6-1.2-2.3-1.9l-2.4-2.1-2.5-2.2c-.8-.8-1.6-1.5-2.5-2.3-.8-.8-1.6-1.6-2.5-2.4-.8-.8-1.6-1.7-2.4-2.5s-1.6-1.7-2.4-2.6-1.6-1.7-2.3-2.6c-1.5-1.7-2.9-3.4-4.2-5.2-1.3-1.7-2.5-3.4-3.7-5-2.2-3.2-4.1-6.3-5.5-8.9s-2.4-4.7-3-6.2c-.4-1.5-.7-2.3-.7-2.3" data-index="22" style="opacity:.2;fill:url(#SVGID_00000137827905180728184900000015147017914933349528_)"/><radialGradient id="SVGID_00000133495855216565427040000015357180492010283400_" cx="156.7" cy="184.38" r="37.69" gradientTransform="matrix(1 0 0 -1 0 387.28)" gradientUnits="userSpaceOnUse"><stop offset="0" style="stop-color:#e84724"/><stop offset=".32" style="stop-color:#e99123"/><stop offset="1" style="stop-color:#fff"/></radialGradient><path d="M46.9 66.3s.2.2.4.7c.3.4.7 1 1.3 1.8.5.8 1.3 1.7 2 2.8.4.6.9 1.1 1.3 1.7.5.6 1 1.3 1.5 1.9.5.7 1.1 1.4 1.7 2.1s1.2 1.5 1.8 2.2c1.2 1.5 2.7 3.2 4.1 4.8.7.8 1.5 1.7 2.3 2.5.8.9 1.5 1.7 2.4 2.6.8.9 1.7 1.7 2.5 2.6l1.3 1.3 1.3 1.3c1.8 1.8 3.5 3.5 5.4 5.2.9.8 1.8 1.7 2.7 2.5s1.9 1.6 2.8 2.4l2.7 2.4c.9.8 1.9 1.5 2.8 2.2 1.8 1.4 3.5 2.8 5.2 4s3.2 2.4 4.5 3.4c1.4 1 2.7 1.8 3.7 2.5 2 1.4 3.2 2.2 3.2 2.2s-1.2-.8-3.3-2.1c-1.1-.7-2.3-1.5-3.8-2.5-1.4-1-3-2.1-4.7-3.3-1.8-1.2-3.5-2.6-5.3-4-.9-.7-1.9-1.4-2.8-2.2s-1.8-1.6-2.8-2.4c-.9-.8-1.9-1.6-2.9-2.4-.9-.8-1.9-1.7-2.8-2.6-1.9-1.7-3.7-3.5-5.5-5.2l-1.3-1.3-1.3-1.3c-.8-.9-1.7-1.8-2.5-2.6l-2.3-2.6c-.8-.9-1.5-1.7-2.2-2.6-1.4-1.7-2.8-3.3-4-4.9-.6-.8-1.2-1.5-1.8-2.2-.5-.7-1.1-1.4-1.6-2.1-1-1.3-1.8-2.6-2.6-3.7-.7-1.1-1.4-2.1-1.9-2.8-.5-.8-.9-1.4-1.1-1.8-.3-.3-.4-.5-.4-.5" data-index="23" style="opacity:1;fill:url(#SVGID_00000133495855216565427040000015357180492010283400_)"/><radialGradient id="SVGID_00000170247195358140411610000014136576262024380607_" cx="166.78" cy="183.04" r="43.54" gradientTransform="matrix(1 0 0 -1 0 387.28)" gradientUnits="userSpaceOnUse"><stop offset="0" style="stop-color:#e84724"/><stop offset=".32" style="stop-color:#e99123"/><stop offset="1" style="stop-color:#fff"/></radialGradient><path d="M46.9 66.3s1 1 2.7 2.6c.9.8 1.9 1.8 3.1 3s2.6 2.5 4.1 3.9 3.1 3 4.9 4.6 3.6 3.3 5.5 5.1 3.9 3.6 6 5.5c2 1.9 4.2 3.7 6.3 5.6s4.3 3.7 6.4 5.6c2.2 1.8 4.3 3.6 6.4 5.3s4.2 3.4 6.2 4.9c2 1.6 3.9 3 5.7 4.4 1.8 1.3 3.5 2.6 5 3.6 1.4 1.1 2.9 2 3.9 2.8l3.5 2.4s-1.3-.8-3.6-2.3c-1.1-.8-2.6-1.6-4.1-2.7s-3.3-2.3-5.2-3.6c-1.8-1.3-3.8-2.8-5.9-4.3-2-1.6-4.2-3.2-6.3-4.9l-6.5-5.3a174 174 0 0 1-6.5-5.6c-2.1-1.9-4.3-3.8-6.3-5.6-2.1-1.9-4.1-3.7-5.9-5.5-1.9-1.8-3.7-3.5-5.4-5.2-1.7-1.6-3.2-3.2-4.7-4.6-2.9-2.9-5.2-5.3-6.8-7-1.6-1.8-2.5-2.8-2.5-2.7" data-index="24" style="opacity:.2;fill:url(#SVGID_00000170247195358140411610000014136576262024380607_)"/><radialGradient id="SVGID_00000146488415546506246600000012749030908340726677_" cx="172.76" cy="180.6" r="46.97" gradientTransform="matrix(1 0 0 -1 0 387.28)" gradientUnits="userSpaceOnUse"><stop offset="0" style="stop-color:#e84724"/><stop offset=".32" style="stop-color:#e99123"/><stop offset="1" style="stop-color:#fff"/></radialGradient><path d="M47.7 67.1s5.1 4.1 12.8 10.2c1.9 1.5 4 3.2 6.2 5s4.6 3.6 7 5.5 4.9 3.9 7.5 5.9 5.2 4 7.9 6 5.4 4 8 6 5.2 3.9 7.7 5.8c2.4 1.9 4.8 3.8 6.9 5.6 1.1.9 2.1 1.8 3.1 2.6l1.5 1.2c.5.4.9.8 1.4 1.2 1.8 1.6 3.4 3 4.8 4.3.7.7 1.3 1.3 1.9 1.8l1.6 1.6c1 .9 1.7 1.7 2.1 2.2.5.5.7.8.7.8s-1.1-1.1-3.1-2.9c-.5-.5-1.1-1-1.7-1.5-.6-.6-1.3-1.2-2-1.8-1.4-1.3-3.1-2.7-4.9-4.3-.4-.4-.9-.8-1.4-1.2l-1.5-1.2-3.2-2.6c-1.1-.9-2.2-1.8-3.4-2.7s-2.4-1.8-3.6-2.8c-2.5-1.9-5.1-3.8-7.8-5.8l-8.1-6c-2.7-2-5.3-4.1-7.9-6.1s-5.1-4-7.5-5.9-4.7-3.8-6.9-5.6-4.2-3.4-6.1-5q-2.85-2.4-5.1-4.2C53.4 72 52.1 70.9 51 70c-2.1-1.8-3.3-2.9-3.3-2.9" data-index="25" style="opacity:.2;fill:url(#SVGID_00000146488415546506246600000012749030908340726677_)"/><radialGradient id="SVGID_00000000220501445437117970000009933805644788370842_" cx="177.22" cy="179.46" r="53.02" gradientTransform="matrix(1 0 0 -1 0 387.28)" gradientUnits="userSpaceOnUse"><stop offset="0" style="stop-color:#e84724"/><stop offset=".32" style="stop-color:#e99123"/><stop offset="1" style="stop-color:#fff"/></radialGradient><path d="M139.6 138.9s-.2-.3-.7-.9c-.4-.6-1.1-1.4-2-2.5q-1.35-1.65-3.3-3.9c-1.3-1.5-2.9-3.2-4.6-5-1.8-1.8-3.7-3.8-5.9-5.8-1.1-1-2.2-2.1-3.4-3.1-.6-.5-1.2-1.1-1.8-1.6l-1.9-1.6-2-1.7c-.7-.6-1.4-1.1-2.1-1.7s-1.4-1.1-2.1-1.7-1.5-1.1-2.2-1.7l-2.3-1.7c-.8-.5-1.6-1.1-2.4-1.6l-4.8-3.3c-6.4-4.4-12.8-8.7-18.9-12.8-6-4.1-11.6-7.9-16.4-11.2s-8.8-6.1-11.5-8c-2.8-1.9-4.3-3-4.3-3s1.6 1.1 4.5 3c2.8 1.9 7 4.6 11.8 7.8 4.9 3.3 10.6 7 16.6 11.1 6.1 4.1 12.5 8.4 19 12.8l4.8 3.3c.8.6 1.6 1.1 2.4 1.7l2.3 1.7c.8.6 1.5 1.1 2.2 1.7s1.4 1.1 2.1 1.7 1.4 1.1 2.1 1.7l2 1.7c.6.6 1.3 1.1 1.9 1.6.6.6 1.2 1.1 1.8 1.6 1.2 1.1 2.3 2.1 3.4 3.2 2.2 2.1 4.1 4.1 5.8 5.9s3.2 3.5 4.4 5c1.3 1.5 2.3 2.8 3.1 3.9s1.4 1.9 1.9 2.5c.2.6.5.9.5.9" data-index="26" style="opacity:.2;fill:url(#SVGID_00000000220501445437117970000009933805644788370842_)"/><radialGradient id="SVGID_00000145030507570007258650000017693087427258107309_" cx="181.07" cy="177.02" r="47.92" gradientTransform="matrix(1 0 0 -1 0 387.28)" gradientUnits="userSpaceOnUse"><stop offset="0" style="stop-color:#e84724"/><stop offset=".32" style="stop-color:#e99123"/><stop offset="1" style="stop-color:#fff"/></radialGradient><path d="M48.6 67.4s1.8 1.1 5.1 3c1.6 1 3.6 2.1 5.8 3.5 2.2 1.3 4.8 2.9 7.5 4.5 2.8 1.7 5.7 3.5 8.8 5.4s6.4 3.9 9.8 6 6.9 4.3 10.4 6.5 7.1 4.5 10.7 6.8l2.6 1.7c.9.6 1.7 1.2 2.5 1.8a134 134 0 0 1 20.7 17.9c2.1 2.2 3.9 4.4 5.4 6.4.4.5.8 1 1.1 1.4.3.5.7.9 1 1.4.3.4.6.9.9 1.3s.5.8.8 1.2c.2.4.5.8.7 1.2s.4.7.6 1.1c.4.7.8 1.3 1 1.9.3.6.6 1.1.8 1.5s.3.8.5 1.1c.2.6.4.9.4.9s-.2-.3-.4-.9c-.1-.3-.3-.7-.5-1.1s-.5-1-.8-1.5c-.3-.6-.7-1.2-1.1-1.9-.2-.4-.4-.7-.7-1.1-.2-.4-.5-.8-.8-1.2l-.9-1.2c-.3-.4-.6-.9-1-1.3s-.7-.9-1-1.4c-.4-.5-.8-.9-1.2-1.4-1.6-2-3.5-4.1-5.6-6.3-2.2-2.2-4.5-4.6-7.2-6.9-2.6-2.4-5.6-4.8-8.6-7.2l-4.8-3.6c-.8-.6-1.6-1.2-2.5-1.8l-2.6-1.7c-3.5-2.3-7.1-4.5-10.6-6.8-3.5-2.2-6.9-4.4-10.3-6.5s-6.7-4.2-9.8-6.1-6-3.8-8.7-5.4c-10.8-6.7-18-11.2-18-11.2" data-index="27" style="opacity:.2;fill:url(#SVGID_00000145030507570007258650000017693087427258107309_)"/><radialGradient id="SVGID_00000077288770684839101630000016292755707032701598_" cx="182.88" cy="176.58" r="60.74" gradientTransform="matrix(1 0 0 -1 0 387.28)" gradientUnits="userSpaceOnUse"><stop offset=".16" style="stop-color:#e89d23"/><stop offset=".63" style="stop-color:#e45025"/><stop offset=".73" style="stop-color:#da4724"/><stop offset=".89" style="stop-color:#bf3223"/><stop offset="1" style="stop-color:#a92023"/></radialGradient><path d="M109.8 122.2C59.3 96.7 46.6 65.6 46.6 65.6c9 31.7 44.8 54.3 44.8 54.3 8.7 6.8 34.2 8.9 50.2 22.5 3.7 3.1 6.2 5.9 7.8 8.4-.3-1.2-.7-2.6-1.1-3.8-4.9-5.3-15.7-13.4-38.5-24.8" data-index="28" style="opacity:1;fill:url(#SVGID_00000077288770684839101630000016292755707032701598_)"/><linearGradient id="SVGID_00000087403915708280662440000004185588977370342823_" x1="121.45" x2="137.07" y1="95.37" y2="98.98" gradientTransform="rotate(-2.55 8819.5 99.7)scale(1 -1)" gradientUnits="userSpaceOnUse"><stop offset="0" style="stop-color:#2d8741"/><stop offset=".5" style="stop-color:#195b2e"/><stop offset="1" style="stop-color:#1b441f"/></linearGradient><path d="M153 387.1s-43.7-101.2-48-197.9c0 0 9 37.9 27.2 64.6 0 0 6.6 64.8 34.8 132.7z" data-index="29" style="fill:url(#SVGID_00000087403915708280662440000004185588977370342823_);opacity:1"/><linearGradient id="SVGID_00000096749414048657662070000014256781690407311513_" x1="124.7" x2="169.33" y1="126.21" y2="-40.66" gradientTransform="rotate(-2.55 8819.5 99.7)scale(1 -1)" gradientUnits="userSpaceOnUse"><stop offset="0" style="stop-color:#2d8741"/><stop offset=".5" style="stop-color:#195b2e"/><stop offset="1" style="stop-color:#1b441f"/></linearGradient><path d="M132.2 253.7c-3.5-5.2-6.7-10.7-9.5-16.4 2.8 15.9 8.8 47.4 19.5 91.4 5.2 21.4 8.4 35.9 5.8 45.8 3.1 8 5 12.5 5 12.5l13.9-.6c-28.2-67.9-34.7-132.7-34.7-132.7" data-index="30" style="opacity:1;fill:url(#SVGID_00000096749414048657662070000014256781690407311513_)"/><linearGradient id="SVGID_00000077317432849847762670000016871093523872049028_" x1="182.55" x2="164.07" y1="310.7" y2="307.06" gradientTransform="rotate(-2.55 8819.5 99.7)scale(1 -1)" gradientUnits="userSpaceOnUse"><stop offset="0" style="stop-color:#fddd00"/><stop offset=".54" style="stop-color:#e89823"/><stop offset="1" style="stop-color:#f16522"/></linearGradient><path d="M170.8 80.9c-12.1-40.4-11-80.6-11-80.6s-11.9 41.1-3.9 81.8c7 35.5 16 32.6 14.8 42.4-.9 7.7-6.3 22.9-8.6 29 3.9-1.2 4-1.3 8.1-2 8.7-25.5 11.7-18.1 15.6-24.1 2.2-3.3-2.9-6.1-15-46.5" data-index="31" style="fill:url(#SVGID_00000077317432849847762670000016871093523872049028_)"/><linearGradient id="SVGID_00000104683660826972771790000011811173289257554330_" x1="188.52" x2="214.55" y1="330.92" y2="323.67" gradientTransform="rotate(-2.55 8819.5 99.7)scale(1 -1)" gradientUnits="userSpaceOnUse"><stop offset="0" style="stop-color:#e89d23"/><stop offset=".49" style="stop-color:#e45025"/><stop offset=".52" style="stop-color:#de4b24"/><stop offset=".84" style="stop-color:#b72c23"/><stop offset="1" style="stop-color:#a92023"/></linearGradient><path d="M201.3 0c-26.2 37.3-28.3 73.6-27.6 90.2 3.4 10.7 6.1 18.1 8.2 23.3 5.8-14 13.2-19.2 20.5-46.5 8.8-33.1-1.1-67-1.1-67" data-index="32" style="fill:url(#SVGID_00000104683660826972771790000011811173289257554330_)"/><radialGradient id="SVGID_00000173132286934064582160000003936327984583444644_" cx="250.21" cy="311.09" r="71.38" gradientTransform="rotate(-2.55 8819.5 99.7)scale(1 -1)" gradientUnits="userSpaceOnUse"><stop offset="0" style="stop-color:#e89d23"/><stop offset=".49" style="stop-color:#e45025"/><stop offset=".52" style="stop-color:#de4b24"/><stop offset=".84" style="stop-color:#b72c23"/><stop offset="1" style="stop-color:#a92023"/></radialGradient><path d="M262.3 73.7c-35.5 4.5-48.8 11.3-61.9 31.5-3.4 5.2-4.6 7.2-10 10.1-2.5 1.4-4.9 2.3-6.6 3 1.9 4.6 2.8 6.6 2.5 8 3.3-2.3 8.4-5.6 12.7-7.8 20.6-10.2 26.2 1.3 57.6-14.5C288.1 88.2 306 65.3 306 65.3s-8.2 4-43.7 8.4" data-index="33" style="fill:url(#SVGID_00000173132286934064582160000003936327984583444644_);opacity:1"/><linearGradient id="SVGID_00000065759697038970005620000015262991401290497200_" x1="226.18" x2="231.68" y1="331.41" y2="324.04" gradientTransform="rotate(-2.55 8819.5 99.7)scale(1 -1)" gradientUnits="userSpaceOnUse"><stop offset="0" style="stop-color:#fddd00"/><stop offset=".54" style="stop-color:#e89823"/><stop offset="1" style="stop-color:#f16522"/></linearGradient><path d="m202.9 64.8-.6 2.2c-2.4 9.1-4.9 15.8-7.3 21.1C210.4 55 253.3 36 253.3 36c-25.6 6.1-42.4 20.4-50.4 28.8" data-index="34" style="fill:url(#SVGID_00000065759697038970005620000015262991401290497200_);opacity:1"/><radialGradient id="SVGID_00000092457960570581641970000015991589111417654947_" cx="163.84" cy="340.94" r="163.91" gradientTransform="rotate(-2.55 8819.5 99.7)scale(1 -1)" gradientUnits="userSpaceOnUse"><stop offset=".5" style="stop-color:#e99123"/><stop offset=".76" style="stop-color:#e84724"/><stop offset="1" style="stop-color:#a92023"/></radialGradient><path d="M344 138.7c-32 13.6-65.8 11.2-113.3 9.8-33-.9-73.4-3.9-95.6 22.5-14.2 16.8-18.5 37.3-19.8 49.9.8 2.1 1.7 4.2 2.7 6.4 1.4-12.1 6.5-32.8 23.9-47.3 38.4-31.9 143.5-12.7 198.4-37.7 2.6-2.3 3.7-3.6 3.7-3.6" data-index="35" style="fill:url(#SVGID_00000092457960570581641970000015991589111417654947_);opacity:1"/><linearGradient id="SVGID_00000017499227890820462730000013273993533943456682_" x1="199.56" x2="241.21" y1="250.99" y2="182.89" gradientTransform="rotate(-2.55 8819.5 99.7)scale(1 -1)" gradientUnits="userSpaceOnUse"><stop offset="0" style="stop-color:#00adee"/><stop offset=".37" style="stop-color:#00493e"/><stop offset=".77" style="stop-color:#062036"/><stop offset="1" style="stop-color:#06172d"/></linearGradient><path d="M118 227.3c2.8 6.5 6.1 13.2 9.8 19.6-.7-36.8 8-45.6 8-45.6s35.8 6.6 89.3-9.6c59.5-18.1 106.6-42 115.2-49.4-61.9 23.3-160 5.8-198.4 37.7-17.4 14.5-22.5 35.3-23.9 47.3" data-index="36" style="fill:url(#SVGID_00000017499227890820462730000013273993533943456682_);opacity:1"/><linearGradient id="SVGID_00000061442806997661746590000004284974595061501334_" x1="108.68" x2="111.02" y1="257.61" y2="237.53" gradientTransform="rotate(-2.55 8819.5 99.7)scale(1 -1)" gradientUnits="userSpaceOnUse"><stop offset="0" style="stop-color:#fddd00"/><stop offset=".43" style="stop-color:#e89823"/><stop offset="1" style="stop-color:#f05722"/></linearGradient><path d="M140.1 139.7c-11.3-6.9-26-6.7-43.4-4.7-13.1 1.5-27.3 3.5-41.5 2.6 18.3 12.1 36.8 15.6 56.9 10.4 20.2-5.2 30.4-2.4 33.6 4.4 1.3 2.7 2.1 5.2 2.6 7.3 1.6-.9 3.1-1.8 4.8-2.6-1.5-4.6-4.7-12.4-13-17.4" data-index="37" style="fill:url(#SVGID_00000061442806997661746590000004284974595061501334_);opacity:1"/><radialGradient id="SVGID_00000140000253799370972740000002428837449557241265_" cx="176.95" cy="343.68" r="110.88" gradientTransform="matrix(1 0 0 -1 0 387.28)" gradientUnits="userSpaceOnUse"><stop offset="0" style="stop-color:#e89d23"/><stop offset=".49" style="stop-color:#e45025"/><stop offset=".52" style="stop-color:#de4b24"/><stop offset=".84" style="stop-color:#b72c23"/><stop offset="1" style="stop-color:#a92023"/></radialGradient><path d="M159.3 154.5c-19.1-30.8-11.8-60.7-11.4-84.4.6-35.3-19.3-61.1-19.3-61.1 4.2 22.8-4.8 54.9-2.1 76.7 2.7 21.9 12.3 25.2 12.3 25.2 2.9 10.2 5.6 26.7 5.6 26.7s2.3 5.4 4.1 9.9c2.4 3.5 3.8 7 4.7 9.6 1.9-.9 4-1.8 6.1-2.6" data-index="38" style="fill:url(#SVGID_00000140000253799370972740000002428837449557241265_)"/><radialGradient id="SVGID_00000021800348253646844380000001027255878409908394_" cx="224.22" cy="231.75" r="82.43" gradientTransform="matrix(1 0 0 -1 0 387.28)" gradientUnits="userSpaceOnUse"><stop offset="0" style="stop-color:#062036"/><stop offset=".34" style="stop-color:#00493e"/><stop offset="1" style="stop-color:#fff"/></radialGradient><path d="M306.2 152.7s-2.4 1.5-6.7 3.9q-3.3 1.8-7.8 4.2c-3 1.6-6.5 3.4-10.3 5.2s-7.9 3.8-12.4 5.8c-4.4 2-9.1 4-14 6-4.9 1.9-10 3.9-15.2 5.8s-10.6 3.6-16 5.3c-2.7.8-5.4 1.6-8.1 2.3l-8.1 2.1c-5.4 1.3-10.7 2.5-15.9 3.4-2.6.4-5.2.9-7.7 1.3s-5 .7-7.4.9c-4.8.6-9.4.9-13.6 1.1-2.1.1-4.1.1-6.1.2-1.9 0-3.8-.1-5.5-.1-.9 0-1.7 0-2.5-.1s-1.6-.1-2.3-.1l-4.1-.3c-2.4-.2-4.4-.5-5.7-.7s-2-.2-2-.2.7.1 2 .2 3.2.3 5.7.5c1.2.1 2.6.1 4.1.2.7 0 1.5.1 2.3.1h2.5c1.7 0 3.5 0 5.5-.1l6-.3c4.2-.3 8.8-.6 13.5-1.3 2.4-.3 4.9-.7 7.4-1.1s5.1-.9 7.6-1.3c5.2-.9 10.5-2.1 15.9-3.5l8.1-2.1 8.1-2.4c5.4-1.6 10.7-3.4 15.9-5.2s10.3-3.8 15.2-5.7c4.9-2 9.6-3.9 14-5.8 4.5-1.9 8.6-3.8 12.4-5.6s7.3-3.5 10.4-5 5.7-2.9 7.9-4 3.9-2 5-2.7c1.3-.6 1.9-.9 1.9-.9" data-index="39" style="opacity:.4;fill:url(#SVGID_00000021800348253646844380000001027255878409908394_)"/><radialGradient id="SVGID_00000071531766810426912010000008342147069837265044_" cx="213.14" cy="252.48" r="81.12" gradientTransform="matrix(1 0 0 -1 0 387.28)" gradientUnits="userSpaceOnUse"><stop offset="0" style="stop-color:#062036"/><stop offset=".34" style="stop-color:#00493e"/><stop offset="1" style="stop-color:#fff"/></radialGradient><path d="M138.7 197.1s.6-.1 1.8-.2 2.9-.4 5.2-.7c2.2-.3 4.9-.7 8-1.1 3.1-.5 6.6-1 10.3-1.7 3.8-.6 7.9-1.4 12.2-2.2 2.2-.4 4.4-.9 6.6-1.3 2.3-.5 4.6-.9 6.9-1.4s4.7-1 7.1-1.6c1.2-.3 2.4-.5 3.6-.8l3.6-.9c2.4-.6 4.9-1.2 7.4-1.8s4.9-1.3 7.4-2 4.9-1.3 7.4-2l7.3-2.1c1.2-.4 2.4-.7 3.6-1.1 1.2-.3 2.4-.7 3.6-1.1 2.4-.8 4.7-1.5 6.9-2.2 2.3-.8 4.5-1.4 6.7-2.2s4.3-1.5 6.4-2.2q3.15-1.05 6-2.1c1.9-.7 3.8-1.5 5.6-2.1 3.6-1.4 6.9-2.7 9.8-3.8 2.9-1.2 5.4-2.3 7.4-3.2l6.5-2.7s-2.3 1.1-6.4 3c-2 .9-4.5 2.1-7.3 3.4-2.9 1.2-6.1 2.6-9.7 4-1.8.7-3.6 1.5-5.6 2.3-1.9.7-4 1.5-6 2.2-2.1.8-4.2 1.6-6.4 2.4-1.1.4-2.2.8-3.3 1.1-1.1.4-2.2.7-3.4 1.1-2.3.8-4.6 1.5-7 2.3-1.2.4-2.4.8-3.6 1.1s-2.4.7-3.6 1.1c-2.4.7-4.9 1.4-7.3 2.2-2.5.7-4.9 1.3-7.4 2-2.5.6-4.9 1.3-7.4 1.9s-5 1.2-7.4 1.8c-1.2.3-2.4.6-3.7.9-1.2.3-2.4.5-3.6.8l-7.2 1.5c-2.4.5-4.7.9-6.9 1.4-2.3.4-4.5.9-6.7 1.2-4.4.7-8.4 1.4-12.3 2-3.8.6-7.3 1-10.4 1.4s-5.8.7-8 .9-4 .4-5.2.5c-.9-.1-1.5 0-1.5 0" data-index="40" style="opacity:1;fill:url(#SVGID_00000071531766810426912010000008342147069837265044_)"/><radialGradient id="SVGID_00000094580004173417953140000009395368902250989721_" cx="208.71" cy="251.61" r="71.32" gradientTransform="matrix(1 0 0 -1 0 387.28)" gradientUnits="userSpaceOnUse"><stop offset="0" style="stop-color:#062036"/><stop offset=".34" style="stop-color:#00493e"/><stop offset="1" style="stop-color:#fff"/></radialGradient><path d="M138.1 191.6s.6-.1 1.7-.2 2.8-.4 4.9-.7 4.6-.7 7.5-1.3c1.4-.3 3-.5 4.6-.8.8-.1 1.6-.3 2.5-.4.9-.2 1.7-.3 2.6-.5 3.6-.7 7.4-1.5 11.4-2.3 2-.4 4.1-.9 6.2-1.4s4.3-1 6.5-1.4c2.2-.5 4.4-1 6.7-1.5 1.1-.2 2.3-.5 3.4-.8l3.4-.9c4.6-1.1 9.3-2.3 14-3.5 2.3-.6 4.7-1.1 7-1.7l6.9-1.8q6.9-1.8 13.5-3.6c4.4-1.2 8.6-2.3 12.6-3.4s7.8-2.2 11.2-3.2c7-2 12.8-3.6 16.8-4.8 4.1-1.1 6.4-1.8 6.4-1.8s-2.3.7-6.3 2-9.8 3.1-16.7 5.3c-3.5 1.1-7.2 2.2-11.2 3.5-4 1.2-8.2 2.3-12.6 3.6-4.4 1.2-8.9 2.4-13.4 3.7-2.3.6-4.6 1.3-6.9 1.9s-4.7 1.2-7 1.7c-4.7 1.1-9.4 2.3-14 3.4-1.1.3-2.3.6-3.4.8s-2.3.5-3.4.7c-2.3.5-4.5 1-6.7 1.4s-4.4.9-6.5 1.4c-2.1.4-4.2.9-6.3 1.2-4.1.7-7.9 1.4-11.5 2.1s-6.9 1.1-9.8 1.5-5.4.8-7.6 1c-2.1.2-3.8.4-4.9.5-1 .3-1.6.3-1.6.3" data-index="41" style="opacity:.4;fill:url(#SVGID_00000094580004173417953140000009395368902250989721_)"/><radialGradient id="SVGID_00000051379316647354035540000000593672963254372792_" cx="201.9" cy="260.31" r="72.08" gradientTransform="matrix(1 0 0 -1 0 387.28)" gradientUnits="userSpaceOnUse"><stop offset="0" style="stop-color:#062036"/><stop offset=".34" style="stop-color:#00493e"/><stop offset="1" style="stop-color:#fff"/></radialGradient><path d="m139.8 187.6 5.8-1.4c3.7-.9 9-2.1 15.4-3.6 12.8-2.9 29.8-6.8 46.8-10.6 8.5-1.9 17.1-3.7 25-5.5 8-1.8 15.5-3.3 21.9-4.7s11.8-2.4 15.5-3.2c3.8-.8 5.9-1.2 5.9-1.2l-5.8 1.4c-3.7.9-9 2.2-15.4 3.7s-13.8 3.3-21.8 5.1-16.5 3.7-25 5.7c-8.5 1.9-17.1 3.7-25.1 5.5-2 .4-4 .9-5.9 1.3s-3.8.8-5.6 1.1c-3.7.8-7.1 1.5-10.4 2.1-6.4 1.3-11.8 2.3-15.5 3.1s-5.9 1.2-5.8 1.2" data-index="42" style="opacity:.4;fill:url(#SVGID_00000051379316647354035540000000593672963254372792_)"/><radialGradient id="SVGID_00000083768630327605864560000009594170815374178964_" cx="198.76" cy="251.38" r="51.66" gradientTransform="matrix(1 0 0 -1 0 387.28)" gradientUnits="userSpaceOnUse"><stop offset="0" style="stop-color:#062036"/><stop offset=".34" style="stop-color:#00493e"/><stop offset="1" style="stop-color:#fff"/></radialGradient><path d="m258.8 158.3-5.1.8c-1.6.2-3.6.5-5.9.9s-4.8.8-7.6 1.2q-4.2.75-9 1.5c-3.2.6-6.5 1.1-10 1.8-3.5.6-7 1.3-10.6 2-1.8.4-3.6.7-5.5 1.1l-5.5 1.2c-3.7.7-7.3 1.6-10.9 2.4-1.8.4-3.6.8-5.3 1.3s-3.5.9-5.2 1.3-3.4.9-5 1.4c-1.6.4-3.2.9-4.8 1.3-3.1.9-6 1.8-8.7 2.6-1.4.4-2.6.9-3.8 1.3s-2.4.8-3.4 1.2c-1.1.4-2.1.7-3 1.1s-1.8.7-2.5 1c-3 1.2-4.8 2-4.8 2l4.7-2.2c.8-.4 1.6-.7 2.5-1.1s1.9-.8 3-1.2 2.2-.9 3.4-1.4 2.4-1 3.8-1.4c2.7-.9 5.6-1.9 8.6-2.9 3.1-.9 6.4-1.9 9.8-2.8 1.7-.4 3.4-.9 5.2-1.4s3.5-.9 5.3-1.3c3.6-.8 7.2-1.7 10.9-2.5 1.8-.4 3.7-.8 5.5-1.1 1.8-.4 3.7-.7 5.5-1 3.6-.7 7.2-1.3 10.7-1.9s6.8-1.1 10-1.6c3.2-.4 6.2-.9 9-1.3s5.4-.7 7.6-.9 4.3-.5 5.9-.6c3.3-.7 5.2-.8 5.2-.8" data-index="43" style="opacity:.4;fill:url(#SVGID_00000083768630327605864560000009594170815374178964_)"/><radialGradient id="SVGID_00000131328791634419002940000018289422456770664099_" cx="191.37" cy="263.63" r="57.1" gradientTransform="matrix(1 0 0 -1 0 387.28)" gradientUnits="userSpaceOnUse"><stop offset="0" style="stop-color:#062036"/><stop offset=".34" style="stop-color:#00493e"/><stop offset="1" style="stop-color:#fff"/></radialGradient><path d="m142.1 182.4.2-.2c.1-.1.4-.4.6-.7.3-.3.7-.6 1.1-1s1-.8 1.6-1.2c1.2-.9 2.7-1.9 4.5-2.9.4-.3.9-.5 1.4-.8.5-.2 1-.5 1.5-.8s1.1-.5 1.6-.8c.6-.3 1.1-.6 1.7-.8 1.2-.5 2.4-1 3.7-1.5s2.6-1 4-1.5c2.7-1.1 5.7-1.9 8.7-2.8 1.5-.5 3.1-.8 4.7-1.2l4.8-1.2 9.9-2.1c3.4-.5 6.7-1.1 10-1.6 1.6-.3 3.3-.4 4.9-.7l4.8-.6 4.6-.6c1.5-.1 3-.3 4.5-.4 2.9-.2 5.6-.5 8.2-.7s4.9-.3 6.9-.4c2.1-.1 3.9-.2 5.3-.3 3-.1 4.6-.2 4.6-.2s-1.7.2-4.6.5c-1.5.1-3.3.3-5.3.5l-3.3.3c-1.1.1-2.4.2-3.6.4q-3.75.45-8.1.9c-1.4.2-2.9.3-4.4.5l-4.6.6-4.8.6c-1.6.2-3.2.4-4.9.7-3.3.6-6.6 1.1-9.9 1.7-3.3.7-6.6 1.3-9.9 2l-4.8 1.2c-1.6.4-3.1.7-4.7 1.2-3 .9-6 1.6-8.7 2.6-1.4.5-2.7.9-4 1.4s-2.5 1-3.7 1.4-2.3 1-3.3 1.5c-.5.2-1 .5-1.5.7s-.9.5-1.4.7c-1.8.9-3.4 1.9-4.6 2.6-.6.4-1.1.8-1.6 1.1-.4.4-.8.7-1.1.9-.3.3-.5.5-.7.6-.3.3-.4.4-.3.4" data-index="44" style="opacity:.4;fill:url(#SVGID_00000131328791634419002940000018289422456770664099_)"/><radialGradient id="SVGID_00000150818032222677657470000010849688458302804639_" cx="156.24" cy="89.15" r="64.21" gradientTransform="matrix(1 0 0 -1 0 387.28)" gradientUnits="userSpaceOnUse"><stop offset="0" style="stop-color:#062036"/><stop offset=".34" style="stop-color:#00493e"/><stop offset="1" style="stop-color:#fff"/></radialGradient><path d="M128.9 254.8s.1.5.2 1.5c.2 1 .4 2.3.7 4.1s.7 3.9 1.1 6.4 1 5.2 1.6 8.2 1.3 6.3 2 9.7c.8 3.4 1.5 7.1 2.4 10.8.4 1.9.9 3.8 1.3 5.7.5 1.9.9 3.9 1.4 5.8.9 3.9 2 7.9 3 11.9s2.1 7.9 3.2 11.8q1.65 5.85 3.3 11.4c.5 1.9 1.1 3.6 1.6 5.4s1.1 3.5 1.6 5.2c1 3.4 2.1 6.5 3 9.5.5 1.5.9 2.9 1.4 4.2.4 1.3.8 2.6 1.2 3.8.8 2.4 1.5 4.4 2.1 6.1 1.2 3.4 1.8 5.3 1.8 5.3s-.8-1.9-2.1-5.2q-.9-2.55-2.4-6c-.9-2.3-1.8-5-2.9-7.9-1-2.9-2.2-6-3.3-9.4s-2.3-6.9-3.4-10.6-2.3-7.5-3.4-11.4c-.6-2-1.1-3.9-1.6-5.9-.6-2-1.1-4-1.6-5.9-1-4-2.1-8-3-11.9-.5-2-.9-3.9-1.4-5.9-.4-1.9-.9-3.9-1.3-5.7-.9-3.8-1.5-7.4-2.2-10.9-.6-3.5-1.3-6.8-1.8-9.8-.2-1.5-.5-3-.7-4.4q-.3-2.1-.6-3.9c-.4-2.5-.6-4.6-.9-6.4-.1-3.6-.3-5.6-.3-5.6" data-index="45" style="opacity:.2;fill:url(#SVGID_00000150818032222677657470000010849688458302804639_)"/><radialGradient id="SVGID_00000088115318611761421590000013116222826994703799_" cx="151.2" cy="101.51" r="73.31" gradientTransform="matrix(1 0 0 -1 0 387.28)" gradientUnits="userSpaceOnUse"><stop offset="0" style="stop-color:#062036"/><stop offset=".34" style="stop-color:#00493e"/><stop offset="1" style="stop-color:#fff"/></radialGradient><path d="M121.3 237.9s.1.6.2 1.7.4 2.7.7 4.7q.45 3 1.2 7.2c.2 1.4.5 2.9.8 4.4.3 1.6.6 3.2.9 4.9.7 3.4 1.4 7.1 2.2 11s1.8 8 2.7 12.3c.9 4.2 2 8.6 3.1 13.1a2473 2473 0 0 0 7.1 26.8c1.3 4.4 2.5 8.7 3.7 12.9q1.95 6.3 3.6 12c1.2 3.8 2.3 7.4 3.4 10.7s2 6.4 2.9 9.1 1.6 5 2.3 7c1.2 3.9 2 6.1 2 6.1l-2.2-6c-.7-1.9-1.5-4.2-2.5-6.9-1-2.6-2-5.7-3.1-9s-2.4-6.9-3.6-10.7-2.5-7.8-3.8-12-2.5-8.5-3.8-12.9-2.5-8.9-3.7-13.4-2.3-9-3.4-13.5c-1-4.5-2.1-8.8-3-13.1-.5-2.1-.9-4.2-1.3-6.3-.4-2-.8-4.1-1.2-6-.8-3.9-1.4-7.6-2-11.1-.6-3.4-1.1-6.6-1.5-9.4s-.7-5.3-1-7.3-.4-3.6-.5-4.7-.3-1.6-.2-1.6" data-index="46" style="opacity:.2;fill:url(#SVGID_00000088115318611761421590000013116222826994703799_)"/><radialGradient id="SVGID_00000071528844984971176780000005565212722839398535_" cx="140.56" cy="104.94" r="76.6" gradientTransform="matrix(1 0 0 -1 0 387.28)" gradientUnits="userSpaceOnUse"><stop offset="0" style="stop-color:#062036"/><stop offset=".34" style="stop-color:#00493e"/><stop offset="1" style="stop-color:#fff"/></radialGradient><path d="m115.6 227.4.3 1.8c.2 1.2.4 2.9.8 5 .3 2.2.8 4.8 1.3 7.8s1.1 6.4 1.8 10.1 1.5 7.7 2.3 11.9c.4 2.1.9 4.3 1.4 6.5s.9 4.5 1.4 6.7c1 4.6 2.1 9.3 3.2 14.1.6 2.4 1.2 4.8 1.7 7.2.6 2.4 1.2 4.8 1.9 7.2 1.2 4.9 2.5 9.7 3.8 14.4.3 1.2.6 2.4 1 3.5.3 1.2.7 2.3 1 3.5.7 2.3 1.4 4.6 2 6.8.3 1.1.7 2.2 1 3.3s.7 2.2 1 3.3c.7 2.1 1.3 4.3 2 6.3s1.2 4 1.9 6c.6 1.9 1.3 3.8 1.9 5.5.6 1.8 1.2 3.5 1.7 5.1.6 1.6 1 3.2 1.6 4.6 1 2.9 1.9 5.4 2.7 7.4 1.5 4.1 2.3 6.5 2.3 6.5s-.9-2.3-2.6-6.4c-.8-2-1.8-4.5-2.9-7.3s-2.2-6.1-3.5-9.6c-.6-1.8-1.3-3.6-2-5.5s-1.3-3.9-2-5.9c-1.3-4.1-2.9-8.4-4.1-12.9-.7-2.2-1.4-4.5-2.1-6.8-.4-1.2-.7-2.3-1-3.5s-.7-2.4-1-3.5c-1.3-4.8-2.7-9.5-3.9-14.4l-1.8-7.3c-.6-2.4-1.1-4.8-1.7-7.2-1.2-4.8-2.2-9.5-3.1-14.1-1-4.6-1.8-9-2.6-13.3-.8-4.2-1.5-8.2-2.1-11.9-.3-1.9-.6-3.6-.9-5.3-.2-1.7-.5-3.3-.7-4.8-.4-3-.8-5.6-1.1-7.8-.6-4.5-.9-7-.9-7" data-index="47" style="opacity:.2;fill:url(#SVGID_00000071528844984971176780000005565212722839398535_)"/><radialGradient id="SVGID_00000005248922844849332800000009904750873663476401_" cx="156.58" cy="97.8" r="90.71" gradientTransform="rotate(177.65 -2.16 195.7)scale(-1 1)" gradientUnits="userSpaceOnUse"><stop offset="0" style="stop-color:#062036"/><stop offset=".34" style="stop-color:#00493e"/><stop offset="1" style="stop-color:#fff"/></radialGradient><path d="m106 199.3.3 2.1a548 548 0 0 0 2.4 15.1 821 821 0 0 0 4.8 26c.5 2.5 1.1 5 1.6 7.7.6 2.6 1.1 5.3 1.7 8 1.2 5.4 2.4 11 3.8 16.7.7 2.8 1.3 5.7 2 8.5.7 2.9 1.5 5.7 2.2 8.6 1.4 5.8 3 11.5 4.5 17.1.4 1.4.8 2.8 1.1 4.2.4 1.4.8 2.8 1.2 4.1.8 2.7 1.6 5.5 2.4 8.1.4 1.3.8 2.6 1.1 4l1.2 3.9c.8 2.5 1.6 5 2.3 7.5.8 2.4 1.4 4.8 2.2 7.1s1.5 4.5 2.2 6.6 1.4 4.1 2 6 1.2 3.8 1.8 5.5c1.2 3.4 2.3 6.4 3.1 8.8 1.7 4.9 2.7 7.7 2.7 7.7l-3-7.6c-.9-2.4-2.1-5.3-3.4-8.7s-2.6-7.2-4.1-11.4c-.7-2.1-1.5-4.3-2.3-6.5-.8-2.3-1.5-4.6-2.3-7-1.6-4.8-3.3-9.9-4.9-15.3l-2.4-8.1c-.4-1.4-.8-2.8-1.2-4.1l-1.2-4.2c-1.5-5.6-3.2-11.3-4.6-17.1-.7-2.9-1.4-5.8-2.1-8.6-.7-2.9-1.3-5.7-2-8.6-1.3-5.7-2.5-11.3-3.7-16.7s-2.1-10.7-3.1-15.7c-.9-5-1.8-9.8-2.4-14.1-.3-2.2-.7-4.3-1-6.3s-.6-3.9-.8-5.7a414 414 0 0 1-2.1-17.6" data-index="48" style="opacity:.2;fill:url(#SVGID_00000005248922844849332800000009904750873663476401_)"/><radialGradient id="SVGID_00000036960651479301760780000017315079877181249977_" cx="170.09" cy="254.32" r="86.19" gradientTransform="rotate(-2.55 8819.5 99.7)scale(1 -1)" gradientUnits="userSpaceOnUse"><stop offset="0" style="stop-color:#e84724"/><stop offset=".32" style="stop-color:#e99123"/><stop offset="1" style="stop-color:#fff"/></radialGradient><path d="M116.9 224.9s0-.9.2-2.6.6-4.2 1.4-7.4c.8-3.1 1.9-6.9 3.7-11s4.2-8.7 7.4-13.2 7.4-9 12.3-13c5-4 10.8-7.5 17.2-10.2s13.3-4.8 20.4-6.4 14.4-2.9 21.7-3.8c14.7-1.8 29.4-2.5 43.2-3 6.9-.2 13.6-.4 19.9-.6s12.3-.4 17.8-.7 10.6-.6 15-1c4.5-.4 8.4-.9 11.5-1.5 3.2-.6 5.6-1.1 7.3-1.6.8-.2 1.5-.4 1.9-.5s.6-.2.6-.2-.2.1-.6.2-1.1.3-1.9.6c-1.7.5-4.1 1.1-7.3 1.7-6.3 1.2-15.5 2.3-26.5 2.9-11 .7-23.9 1-37.7 1.5s-28.5 1.3-43.1 3.1c-7.3.9-14.6 2.1-21.6 3.7s-13.9 3.7-20.2 6.3a77 77 0 0 0-17.1 9.9c-4.9 3.9-9.1 8.3-12.3 12.7-3.3 4.4-5.7 8.9-7.6 13-1.8 4.1-3 7.8-3.9 10.9-.8 3.1-1.3 5.6-1.5 7.3-.2 1.9-.2 2.8-.2 2.9" data-index="49" style="opacity:.5;fill:url(#SVGID_00000036960651479301760780000017315079877181249977_)"/><radialGradient id="SVGID_00000094615960838329505850000001842479367534086316_" cx="164.49" cy="288.89" r="124.55" gradientTransform="rotate(-2.55 8819.5 99.7)scale(1 -1)" gradientUnits="userSpaceOnUse"><stop offset="0" style="stop-color:#e84724"/><stop offset=".32" style="stop-color:#e99123"/><stop offset="1" style="stop-color:#fff"/></radialGradient><path d="M116.5 224.4s0-.9.1-2.7.3-4.3.9-7.6 1.6-7.1 3.2-11.4 3.9-9 7.1-13.6c3.2-4.7 7.3-9.3 12.3-13.4s10.8-7.8 17.2-10.7 13.4-5.2 20.6-6.9 14.6-2.9 22.1-3.8c14.9-1.7 29.9-2.2 44-2.5 14-.2 27.1-.2 38.4-.5 5.6-.2 10.8-.4 15.3-.7s8.5-.8 11.7-1.3 5.7-1.1 7.4-1.6c.9-.2 1.5-.4 1.9-.6.4-.1.7-.2.7-.2s-.2.1-.6.2-1.1.4-1.9.6c-1.7.5-4.2 1.1-7.4 1.7s-7.2 1.1-11.7 1.5-9.7.7-15.3.9c-11.2.4-24.3.5-38.4.8-14 .3-29 .9-43.9 2.6-7.4.9-14.8 2.1-22 3.7-7.1 1.7-14.1 3.9-20.4 6.8-6.4 2.9-12.2 6.4-17.1 10.5-5 4.1-9.1 8.6-12.3 13.2s-5.6 9.2-7.2 13.4c-1.7 4.2-2.7 8.1-3.4 11.3s-.9 5.8-1.1 7.5-.2 2.8-.2 2.8" data-index="50" style="opacity:.5;fill:url(#SVGID_00000094615960838329505850000001842479367534086316_)"/><radialGradient id="SVGID_00000085229089905421874640000013035096935777707415_" cx="164.12" cy="282.31" r="118.09" gradientTransform="rotate(-2.55 8819.5 99.7)scale(1 -1)" gradientUnits="userSpaceOnUse"><stop offset="0" style="stop-color:#e84724"/><stop offset=".32" style="stop-color:#e99123"/><stop offset="1" style="stop-color:#fff"/></radialGradient><path d="M116.6 224.1s-.1-.9-.1-2.8a69 69 0 0 1 3.3-19.5c1.4-4.4 3.6-9.3 6.6-14.2 3.1-4.9 7-9.8 12-14.2 4.9-4.4 10.8-8.3 17.2-11.5 1.6-.8 3.3-1.5 5-2.2s3.4-1.3 5.2-1.9c3.5-1.1 7.2-2.1 10.9-2.8 7.4-1.6 15-2.5 22.6-3.2s15.3-1.1 22.8-1.4 14.9-.5 22.1-.6c14.3-.3 27.7-.3 39.1-.7 5.7-.2 11-.4 15.6-.7s8.7-.7 12-1.2 5.9-1 7.6-1.5c.9-.2 1.5-.4 2-.6.4-.1.7-.2.7-.2s-.2.1-.7.2c-.4.1-1.1.3-2 .6-1.7.5-4.3 1.1-7.6 1.6-6.6 1.1-16.1 1.9-27.6 2.4s-24.8.7-39.1 1-29.6.8-44.8 2.2c-7.6.7-15.2 1.7-22.5 3.2-3.7.8-7.3 1.6-10.8 2.8-1.8.6-3.4 1.2-5.1 1.9-1.6.7-3.3 1.4-4.9 2.2a77 77 0 0 0-17.1 11.2c-4.9 4.3-8.9 9.1-12 13.9a69 69 0 0 0-6.8 14c-1.5 4.4-2.4 8.4-2.9 11.7s-.7 5.9-.8 7.7c0 1.7.1 2.6.1 2.6" data-index="51" style="opacity:1;fill:url(#SVGID_00000085229089905421874640000013035096935777707415_)"/><radialGradient id="SVGID_00000024687709033532651470000006872893407453862807_" cx="160.94" cy="307.89" r="121.63" gradientTransform="rotate(-2.55 8819.5 99.7)scale(1 -1)" gradientUnits="userSpaceOnUse"><stop offset="0" style="stop-color:#e84724"/><stop offset=".32" style="stop-color:#e99123"/><stop offset="1" style="stop-color:#fff"/></radialGradient><path d="M116.9 224.9s-.1-1-.1-2.8 0-4.5.4-7.9c.3-3.4 1-7.5 2.2-12 1.2-4.6 3.1-9.6 5.8-14.8 2.7-5.1 6.4-10.4 11.2-15.1 4.7-4.7 10.5-9 17-12.3 1.6-.9 3.3-1.6 5-2.4 1.7-.7 3.5-1.4 5.3-1.9 3.6-1.1 7.3-2 11.1-2.6 7.5-1.4 15.3-2.2 23-2.8s15.5-.9 23.1-1.1 15.1-.3 22.4-.4 14.3-.1 21-.1 13 0 18.8-.1 11.1-.2 15.9-.4 8.8-.5 12.2-.8 6-.7 7.8-1.1c.9-.2 1.6-.3 2-.4.5-.1.7-.2.7-.2s-.2.1-.7.2-1.1.3-2 .5q-2.7.6-7.8 1.2c-6.7.8-16.4 1.4-28 1.6-11.6.3-25.2.4-39.7.5-14.5.2-30 .4-45.5 1.6-7.7.6-15.4 1.3-22.9 2.7-3.7.7-7.4 1.5-11 2.6-1.8.6-3.5 1.2-5.2 1.9s-3.3 1.5-4.9 2.3c-6.4 3.3-12.1 7.4-16.9 12.1-4.7 4.6-8.4 9.8-11.2 14.9s-4.7 10.1-6 14.6-2 8.6-2.4 12-.5 6-.5 7.8c-.2 1.7-.1 2.7-.1 2.7" data-index="52" style="opacity:1;fill:url(#SVGID_00000024687709033532651470000006872893407453862807_)"/><radialGradient id="SVGID_00000148624511859137886010000015859939766448100774_" cx="89.67" cy="255.44" r="47.49" gradientTransform="rotate(-2.55 8819.5 99.7)scale(1 -1)" gradientUnits="userSpaceOnUse"><stop offset="0" style="stop-color:#e84724"/><stop offset=".32" style="stop-color:#e99123"/><stop offset="1" style="stop-color:#fff"/></radialGradient><path d="M56.1 138.2s1.2.7 3.3 1.6c2.2 1 5.3 2.3 9.2 3.5 3.9 1.3 8.5 2.4 13.5 3.2 2.5.4 5.1.7 7.8.8 2.7.2 5.4.2 8.1.1s5.4-.3 8.1-.7c2.6-.4 5.2-.9 7.7-1.4 2.5-.4 5-.8 7.3-1.1 2.3-.2 4.5-.4 6.6-.4s3.9.1 5.6.3c1.6.2 3.1.5 4.2.8s2 .7 2.6.9c.6.3.9.4.9.4s-.3-.1-.9-.4a47 47 0 0 0-2.6-.8c-1.1-.3-2.6-.6-4.2-.7s-3.5-.2-5.5-.1-4.2.3-6.5.6q-3.45.45-7.2 1.2c-2.5.5-5.1 1.1-7.7 1.4-2.7.4-5.4.7-8.1.8-5.5.2-10.9-.2-16-1s-9.7-2.1-13.5-3.4c-3.9-1.3-7-2.7-9.1-3.8-2.4-1.1-3.5-1.8-3.6-1.8" data-index="53" style="opacity:.3;fill:url(#SVGID_00000148624511859137886010000015859939766448100774_)"/><radialGradient id="SVGID_00000127746490207474680440000009958117331104667533_" cx="95.59" cy="262.56" r="41.34" gradientTransform="rotate(-2.55 8819.5 99.7)scale(1 -1)" gradientUnits="userSpaceOnUse"><stop offset="0" style="stop-color:#e84724"/><stop offset=".32" style="stop-color:#e99123"/><stop offset="1" style="stop-color:#fff"/></radialGradient><path d="M55.8 138s1.2.4 3.4 1 5.3 1.4 9.1 2.2 8.2 1.7 12.9 2.4c2.4.3 4.8.6 7.4.8 2.5.2 5.1.3 7.6.4s5.1-.1 7.6-.3c2.5-.3 4.9-.7 7.3-1.1q3.6-.6 6.9-.9l3.2-.3c1-.1 2.1-.1 3-.2a47 47 0 0 1 9.4.4c1.1.2 2 .4 2.6.5l.9.3s-.3-.1-.9-.2-1.5-.3-2.6-.4-2.5-.2-4-.3c-1.6-.1-3.3 0-5.2.1-1 .1-2 .1-3 .2l-3.2.3c-2.2.3-4.5.6-6.9 1-1.2.2-2.4.4-3.6.7l-1.8.3c-.6.1-1.2.2-1.9.2-2.5.3-5.1.4-7.7.4s-5.2-.1-7.7-.3-5-.5-7.4-.9c-4.8-.7-9.2-1.6-12.9-2.6-3.8-.9-6.8-1.8-9-2.5-2.3-.8-3.5-1.2-3.5-1.2" data-index="54" style="opacity:.3;fill:url(#SVGID_00000127746490207474680440000009958117331104667533_)"/><radialGradient id="SVGID_00000022522415010304036240000016507495945128926106_" cx="88.38" cy="258.7" r="35.91" gradientTransform="rotate(-2.55 8819.5 99.7)scale(1 -1)" gradientUnits="userSpaceOnUse"><stop offset="0" style="stop-color:#e84724"/><stop offset=".32" style="stop-color:#e99123"/><stop offset="1" style="stop-color:#fff"/></radialGradient><path d="M56.1 138.1s1.1.2 3.1.6 4.9.8 8.3 1.2l2.7.3a275 275 0 0 0 6 .6c1 .1 2.1.1 3.2.2s2.2.1 3.3.2 2.2.1 3.4.1c1.1 0 2.3 0 3.4.1H93c1.2 0 2.3-.1 3.5-.1 1.2-.1 2.3-.1 3.4-.1 2.3-.2 4.5-.3 6.7-.6 2.2-.2 4.2-.4 6.2-.6s3.9-.3 5.6-.4c.9-.1 1.7-.1 2.5-.1h2.2c1.4.1 2.7.1 3.7.2s1.8.2 2.3.3.8.2.8.2-.3-.1-.8-.2-1.3-.2-2.3-.2c-1-.1-2.2-.1-3.6-.1-.7 0-1.4.1-2.2.1s-1.6.1-2.5.1c-1.7.1-3.6.3-5.6.6-2 .2-4.1.5-6.2.7-2.2.3-4.4.4-6.7.6-1.1.1-2.3.1-3.4.2-1.2.1-2.3.1-3.5.1h-3.5c-1.2 0-2.3-.1-3.4-.1s-2.3-.1-3.4-.1c-1.1-.1-2.2-.1-3.3-.2s-2.2-.2-3.2-.2l-3.1-.3c-1-.1-1.9-.2-2.9-.4-.9-.1-1.8-.2-2.7-.4-1.7-.2-3.3-.5-4.7-.8s-2.6-.5-3.6-.7-1.8-.4-2.3-.5c-.6-.3-.9-.3-.9-.3" data-index="55" style="opacity:.3;fill:url(#SVGID_00000022522415010304036240000016507495945128926106_)"/><radialGradient id="SVGID_00000052095870590512062660000005567529755303770253_" cx="72.13" cy="254.32" r="48.26" gradientTransform="rotate(-2.55 8819.5 99.7)scale(1 -1)" gradientUnits="userSpaceOnUse"><stop offset="0" style="stop-color:#e84724"/><stop offset=".32" style="stop-color:#e99123"/><stop offset="1" style="stop-color:#fff"/></radialGradient><path d="M58.1 138s.9.1 2.4.2 3.7.2 6.2.3c1.3.1 2.7.1 4.2.2 1.5 0 3 .1 4.7.1 1.6 0 3.3.1 5 .1h5.1c1.7 0 3.4 0 5.1-.1 1.7 0 3.4-.1 5-.2s3.2-.1 4.6-.3a414 414 0 0 0 7.7-.6q1.5-.15 2.7-.3l2.3-.3s-.8.1-2.3.4c-.7.1-1.7.3-2.7.4s-2.2.3-3.5.4c-1.3.2-2.7.3-4.2.4s-3 .3-4.7.4c-1.6.1-3.3.2-5 .2-1.7.1-3.4.1-5.2.1h-5.2c-1.7 0-3.4-.1-5-.1a193 193 0 0 1-15-1.1c-1.3-.1-2.2-.2-2.2-.2" data-index="56" style="opacity:.3;fill:url(#SVGID_00000052095870590512062660000005567529755303770253_)"/><radialGradient id="SVGID_00000001660755277418062140000003100648156976166311_" cx="154.3" cy="329.4" r="54.31" gradientTransform="rotate(-2.55 8819.5 99.7)scale(1 -1)" gradientUnits="userSpaceOnUse"><stop offset="0" style="stop-color:#e84724"/><stop offset=".32" style="stop-color:#e99123"/><stop offset="1" style="stop-color:#fff"/></radialGradient><path d="M159.9.3v4.5c0 1.4 0 3.1.1 5.1s.1 4.2.2 6.6c.1 1.2.1 2.5.2 3.8s.2 2.6.2 4c.1 2.8.4 5.7.6 8.7l.9 9.3.6 4.8.3 2.4.4 2.4c.2 1.6.5 3.2.7 4.8s.5 3.2.8 4.7c.3 1.6.6 3.1.8 4.6l.9 4.5.9 4.4c.3 1.4.7 2.8 1 4.1.7 2.7 1.2 5.2 2 7.6.7 2.3 1.3 4.5 1.8 6.3.6 1.9 1.2 3.5 1.6 4.8l1.4 4.2s-.6-1.5-1.6-4.1q-.75-1.95-1.8-4.8c-.6-1.9-1.3-4-2-6.3-.8-2.3-1.4-4.8-2.1-7.5-.4-1.3-.8-2.7-1.1-4.1s-.6-2.9-1-4.4c-.3-1.5-.7-3-1-4.5s-.6-3.1-.9-4.7-.6-3.1-.8-4.7-.5-3.2-.7-4.8l-.4-2.4-.3-2.4-.6-4.8-.9-9.3c-.2-3-.4-6-.5-8.7-.1-1.4-.1-2.7-.2-4 0-1.3-.1-2.6-.1-3.8-.1-2.4 0-4.6 0-6.6s.1-3.7.1-5.1.1-2.5.1-3.3c.3-.9.3-1.3.4-1.3" data-index="57" style="opacity:.2;fill:url(#SVGID_00000001660755277418062140000003100648156976166311_)"/><radialGradient id="SVGID_00000119115692784783419200000010719307366714495158_" cx="148.58" cy="325.74" r="55.92" gradientTransform="rotate(-2.55 8819.5 99.7)scale(1 -1)" gradientUnits="userSpaceOnUse"><stop offset="0" style="stop-color:#e84724"/><stop offset=".32" style="stop-color:#e99123"/><stop offset="1" style="stop-color:#fff"/></radialGradient><path d="m158.8 4.5-.3 4.5c-.1 2.9-.3 7-.3 11.9 0 2.5 0 5.1.1 7.9l.3 8.9c.1 3.1.3 6.2.6 9.5.3 3.2.6 6.5 1 9.7s.9 6.5 1.4 9.7c.3 1.6.5 3.2.9 4.7.3 1.6.6 3.1 1 4.6.2.8.3 1.5.5 2.2l.6 2.2c.2.7.4 1.4.5 2.1l.6 2.1q.6 2.1 1.2 3.9c.6 1.8.8 2.5 1.2 3.6q.6 1.8 1.2 3.3l1.2 3c.4.9.8 1.8 1.1 2.6s.7 1.5 1 2.2c1.3 2.6 2 4.1 2 4.1s-.2-.4-.6-1c-.4-.7-.9-1.7-1.6-2.9-.3-.7-.7-1.4-1.1-2.1s-.8-1.6-1.2-2.5-.8-1.9-1.3-2.9c-.4-1-.8-2.2-1.3-3.3-.5-1.2-.8-2.4-1.3-3.6s-.9-2.6-1.3-3.9l-.6-2.1-.6-2.1c-.4-1.4-.8-2.9-1.1-4.4-.4-1.5-.7-3-1-4.6l-.9-4.7c-.6-3.2-1.1-6.5-1.5-9.7-.4-3.3-.7-6.5-1-9.8-.3-3.2-.4-6.4-.6-9.5-.1-3.1-.2-6.1-.2-8.9s.1-5.5.1-8c.1-4.9.5-9 .7-11.9z" data-index="58" style="opacity:.2;fill:url(#SVGID_00000119115692784783419200000010719307366714495158_)"/><radialGradient id="SVGID_00000152951313806876821090000000632640010321931915_" cx="159.79" cy="313.15" r="39.44" gradientTransform="rotate(-2.55 8819.5 99.7)scale(1 -1)" gradientUnits="userSpaceOnUse"><stop offset="0" style="stop-color:#e84724"/><stop offset=".32" style="stop-color:#e99123"/><stop offset="1" style="stop-color:#fff"/></radialGradient><path d="M157.2 11.6s-.3 1.7-.6 4.6c-.2 1.5-.4 3.2-.5 5.3-.2 2-.3 4.4-.4 6.9s-.1 5.3-.1 8.2.1 6 .3 9.1c.2 3.2.5 6.4.8 9.7l.6 5c.3 1.7.5 3.3.8 5s.5 3.3.9 5c.3 1.7.6 3.3 1 4.9.2.8.4 1.6.5 2.4l.6 2.4c.2.8.4 1.6.6 2.3l.6 2.3.6 2.3c.2.7.5 1.5.7 2.2.4 1.4.9 2.9 1.4 4.2.5 1.4.9 2.7 1.4 4s.9 2.5 1.4 3.7.9 2.3 1.4 3.4c.4 1.1.8 2.1 1.3 3 .9 1.9 1.6 3.5 2.2 4.8 1.3 2.7 2 4.2 2 4.2l-2.2-4.1q-1.05-1.95-2.4-4.8c-.9-1.8-1.8-4-2.9-6.3-.5-1.2-1-2.4-1.5-3.7s-1-2.6-1.5-4l-1.5-4.2c-.2-.7-.5-1.5-.7-2.2-.2-.8-.4-1.5-.7-2.3-.2-.8-.4-1.5-.7-2.3l-.6-2.4-.6-2.4-.6-2.4c-.4-1.6-.7-3.3-1.1-4.9-.4-1.7-.6-3.3-.9-5s-.5-3.3-.8-5l-.6-5c-.3-3.3-.6-6.6-.7-9.8-.2-3.2-.2-6.2-.2-9.2s.1-5.7.3-8.2c.3-5.1.8-9.3 1.3-12.2.7-2.8 1.1-4.5 1.1-4.5" data-index="59" style="opacity:.2;fill:url(#SVGID_00000152951313806876821090000000632640010321931915_)"/><radialGradient id="SVGID_00000113340758188240700750000016656457932658301571_" cx="156.82" cy="293.24" r="39.14" gradientTransform="rotate(-2.55 8819.5 99.7)scale(1 -1)" gradientUnits="userSpaceOnUse"><stop offset="0" style="stop-color:#e84724"/><stop offset=".32" style="stop-color:#e99123"/><stop offset="1" style="stop-color:#fff"/></radialGradient><path d="M153.4 42.7s.1 1.3.2 3.6c.1 1.1.1 2.5.3 4.1.1 1.6.3 3.3.4 5.3.2 1.9.4 4 .7 6.2q.45 3.3.9 6.9c.3 2.4.8 4.9 1.2 7.4.5 2.5 1 5 1.6 7.5l.9 3.8c.3 1.2.6 2.5 1 3.7.7 2.4 1.4 4.8 2.2 7.1.4 1.2.8 2.2 1.2 3.3s.9 2.1 1.3 3.2c.4 1 .9 2 1.3 2.9s.9 1.8 1.4 2.7c.4.9.9 1.7 1.4 2.4.4.8.9 1.5 1.3 2.1.8 1.3 1.6 2.4 2.3 3.4.7.9 1.3 1.6 1.6 2.1.4.5.6.7.6.7s-.2-.2-.6-.7-1-1.1-1.8-2c-.7-.9-1.6-1.9-2.5-3.3-.9-1.3-1.9-2.8-2.8-4.5-.5-.9-1-1.7-1.4-2.7-.4-.9-.9-1.9-1.4-2.9-.4-1-.9-2.1-1.4-3.2-.4-1.1-.9-2.2-1.3-3.4-.8-2.3-1.6-4.7-2.3-7.2-.4-1.2-.7-2.5-1-3.7s-.6-2.5-.9-3.8c-.6-2.5-1.1-5.1-1.5-7.6s-.8-5-1.1-7.4c-.4-2.4-.6-4.8-.8-7s-.4-4.3-.5-6.3c-.3-3.9-.3-7.1-.4-9.4-.1-2-.1-3.3-.1-3.3" data-index="60" style="opacity:.2;fill:url(#SVGID_00000113340758188240700750000016656457932658301571_)"/><radialGradient id="SVGID_00000139984830309763824060000006918913199190650245_" cx="144.69" cy="367.86" r="98.96" gradientTransform="rotate(-2.55 8819.5 99.7)scale(1 -1)" gradientUnits="userSpaceOnUse"><stop offset="0" style="stop-color:#e84724"/><stop offset=".32" style="stop-color:#e99123"/><stop offset="1" style="stop-color:#fff"/></radialGradient><path d="M128.6 9.1s.9 1.5 2.4 4.2c.7 1.4 1.6 3 2.5 4.9s2 4.1 3 6.5c.5 1.2 1 2.5 1.5 3.8.3.7.5 1.3.8 2 .2.7.5 1.4.8 2.1 1 2.8 2 5.9 2.8 9 .4 1.6.8 3.2 1.1 4.9.1.8.3 1.7.5 2.5s.3 1.7.4 2.5l.3 2.6c.1.9.2 1.7.2 2.6.1.9.2 1.7.2 2.6l.1 2.6c.1 1.8.1 3.5.1 5.2s0 3.5-.1 5.2c-.1 3.4-.3 6.8-.5 10.1s-.4 6.4-.6 9.4c-.1 1.5-.1 2.9-.2 4.4-.1 1.4-.1 2.8-.1 4.1v5.5c0 .6.1 1.1.1 1.6.1 2.1.3 4 .4 5.5s.3 2.7.4 3.5.2 1.2.2 1.2-.1-.4-.2-1.2-.4-2-.5-3.5c-.2-1.5-.4-3.4-.6-5.5 0-.5-.1-1.1-.1-1.7s-.1-1.2-.1-1.8c-.1-1.2-.1-2.4-.1-3.8V96c0-1.4.1-2.9.1-4.4.1-3 .3-6.2.5-9.4.2-3.3.4-6.7.5-10.1.1-1.7.1-3.4.1-5.2 0-1.7 0-3.5-.1-5.2l-.1-2.6c0-.9-.1-1.7-.2-2.6s-.1-1.8-.2-2.6l-.3-2.6c-.1-.8-.2-1.7-.4-2.5-.1-.8-.3-1.7-.4-2.5-.4-1.6-.7-3.3-1.1-4.8q-1.2-4.8-2.7-9c-.2-.7-.5-1.4-.7-2.1s-.5-1.4-.8-2c-.5-1.3-1-2.6-1.5-3.8-1-2.4-1.9-4.6-2.8-6.6-.9-1.9-1.7-3.6-2.4-5-1.4-2.4-2.2-4-2.2-3.9" data-index="61" style="opacity:.2;fill:url(#SVGID_00000139984830309763824060000006918913199190650245_)"/><radialGradient id="SVGID_00000104702360936236870010000005715916505537836422_" cx="144.69" cy="367.86" r="98.96" gradientTransform="rotate(-2.55 8819.5 99.7)scale(1 -1)" gradientUnits="userSpaceOnUse"><stop offset="0" style="stop-color:#e84724"/><stop offset=".32" style="stop-color:#e99123"/><stop offset="1" style="stop-color:#fff"/></radialGradient><path d="M128.9 10.8s.9 1.7 2.2 4.8c.6 1.5 1.4 3.4 2.2 5.6.4 1.1.8 2.3 1.2 3.5.2.6.4 1.3.6 1.9l.6 2a247 247 0 0 1 2.4 9c.8 3.2 1.4 6.6 2 10.2.2.9.3 1.8.4 2.7l.3 2.7c.2 1.8.3 3.7.5 5.6.1 1.9.1 3.8.2 5.7s0 3.8.1 5.7c0 7.7-.1 15.3 0 22.5 0 3.6.1 7.1.1 10.3 0 1.6.1 3.2.2 4.8l.3 4.5c.1 1.5.2 2.8.4 4.1.1 1.3.3 2.5.5 3.7s.3 2.2.6 3.2a59 59 0 0 0 1.2 4.9c.2.6.4 1.1.5 1.6.3.9.4 1.3.4 1.3s-.2-.4-.4-1.3c-.1-.4-.3-.9-.5-1.6-.2-.6-.4-1.3-.6-2.2-.2-.8-.4-1.7-.7-2.7-.2-1-.4-2.1-.6-3.2-.4-2.3-.8-4.9-1.1-7.8-.1-1.4-.2-2.9-.4-4.5l-.3-4.8-.3-10.3c-.1-7.2-.1-14.8-.1-22.5v-5.7c-.1-1.9-.1-3.8-.2-5.7-.2-1.9-.2-3.7-.4-5.6l-.3-2.7c-.1-.9-.2-1.8-.4-2.7-.5-3.5-1.1-6.9-1.9-10.2-.4-1.6-.7-3.2-1.1-4.7s-.8-2.9-1.2-4.3c-.2-.7-.4-1.4-.6-2s-.4-1.3-.6-1.9c-.4-1.2-.8-2.4-1.1-3.5-.7-2.2-1.5-4.1-2.1-5.7-1.2-3-2-4.7-2-4.7" data-index="62" style="opacity:.2;fill:url(#SVGID_00000104702360936236870010000005715916505537836422_)"/><radialGradient id="SVGID_00000018226355524316085370000012632224791926622645_" cx="144.69" cy="367.86" r="98.96" gradientTransform="rotate(-2.55 8819.5 99.7)scale(1 -1)" gradientUnits="userSpaceOnUse"><stop offset="0" style="stop-color:#e84724"/><stop offset=".32" style="stop-color:#e99123"/><stop offset="1" style="stop-color:#fff"/></radialGradient><path d="M129 12.9s.5 1.6 1.3 4.3c.4 1.4.9 3.1 1.4 5s1.1 4.1 1.6 6.5c.3 1.2.5 2.5.8 3.8s.5 2.7.8 4c.2 1.4.5 2.8.8 4.3s.4 3 .7 4.5l.6 4.7.3 2.4c.1.8.1 1.6.2 2.4.1 1.6.3 3.2.4 4.9 0 .8.1 1.6.1 2.5.1.8.1 1.7.1 2.5 0 1.7.1 3.3 0 4.9s-.1 3.3-.1 4.9l-.3 9.5c0 .8-.1 1.5-.1 2.3v8.6c0 .7.1 1.4.1 2 .1 1.3.1 2.6.2 3.8 0 1.2.2 2.4.3 3.5l.3 3.2c.1 1 .3 1.9.4 2.8.1.8.2 1.7.4 2.3.3 1.4.5 2.5.8 3.2.2.8.4 1.1.4 1.1s-.2-.4-.4-1.1c-.3-.7-.5-1.8-.9-3.2-.2-.7-.3-1.5-.5-2.3-.1-.9-.4-1.8-.5-2.8s-.3-2.1-.4-3.2-.3-2.3-.4-3.5l-.3-3.8c0-.7-.1-1.3-.1-2v-2.1c0-1.4-.1-2.9-.1-4.4v-2.3c0-.8 0-1.5.1-2.3l.3-9.5c0-1.6.1-3.2.1-4.9 0-1.6-.1-3.3-.1-4.9 0-.8 0-1.6-.1-2.5 0-.8-.1-1.6-.1-2.5l-.3-4.9c-.1-.8-.1-1.6-.2-2.4l-.3-2.4c-.2-1.6-.3-3.1-.6-4.7l-.6-4.5c-.2-1.5-.5-2.9-.7-4.3s-.5-2.7-.7-4c-.3-1.3-.5-2.6-.8-3.8-.5-2.4-1-4.6-1.4-6.6s-.9-3.6-1.2-5c-.8-2.5-1.3-4.1-1.3-4" data-index="63" style="opacity:.2;fill:url(#SVGID_00000018226355524316085370000012632224791926622645_)"/><radialGradient id="SVGID_00000090257218026402553340000007095885468130451089_" cx="144.69" cy="367.86" r="98.96" gradientTransform="rotate(-2.55 8819.5 99.7)scale(1 -1)" gradientUnits="userSpaceOnUse"><stop offset="0" style="stop-color:#e84724"/><stop offset=".32" style="stop-color:#e99123"/><stop offset="1" style="stop-color:#fff"/></radialGradient><path d="M129.7 17.2s.1.4.2 1c.1.7.4 1.6.6 2.9.1.6.2 1.3.4 2.1.1.8.2 1.6.4 2.4.3 1.7.5 3.7.7 5.9s.4 4.5.6 7c.1 2.5.3 5.1.4 7.8.2 5.4.2 11.2.2 16.9 0 5.8-.1 11.5 0 16.9.1 2.7.1 5.3.2 7.8a129 129 0 0 0 .7 10c.1 1 .2 1.9.4 2.8.1.9.3 1.7.4 2.4.2.7.3 1.4.5 2 .4 1.2.6 2.2.9 2.8.2.6.4 1 .4 1s-.1-.3-.4-1c-.3-.6-.6-1.6-1-2.8-.2-.6-.4-1.3-.5-2-.2-.7-.4-1.5-.5-2.4-.3-1.7-.6-3.7-.9-5.8-.2-2.2-.4-4.5-.6-7l-.3-7.8c-.1-5.4-.1-11.2-.1-16.9 0-5.8 0-11.5-.1-16.9-.1-2.7-.1-5.3-.3-7.8-.1-2.5-.3-4.8-.4-7s-.4-4.1-.6-5.9q-.15-1.35-.3-2.4c-.1-.8-.2-1.4-.3-2.1-.2-1.2-.4-2.2-.5-2.9-.2-.7-.2-1.1-.2-1" data-index="64" style="opacity:.2;fill:url(#SVGID_00000090257218026402553340000007095885468130451089_)"/><radialGradient id="SVGID_00000052821121432953173890000011629638004907539113_" cx="144.69" cy="367.86" r="98.96" gradientTransform="rotate(-2.55 8819.5 99.7)scale(1 -1)" gradientUnits="userSpaceOnUse"><stop offset="0" style="stop-color:#e84724"/><stop offset=".32" style="stop-color:#e99123"/><stop offset="1" style="stop-color:#fff"/></radialGradient><path d="M129.3 35.6s.1.3.2.8.2 1.3.4 2.2c.1 1 .2 2.2.3 3.5.1 1.4.1 2.9.1 4.6s-.1 3.5-.2 5.4-.2 3.9-.4 6c-.3 4.2-.7 8.6-.9 13s-.3 8.9 0 13c.1 1 .2 2.1.2 3.1l.3 2.9c.1.9.3 1.9.4 2.7.2.9.3 1.7.5 2.5a75 75 0 0 0 1.2 4.4l.6 1.8q.3.9.6 1.5c.3.9.7 1.6.9 2.1s.3.7.3.7-.1-.2-.4-.7c-.2-.5-.6-1.1-1-2.1q-.3-.6-.6-1.5c-.2-.5-.4-1.2-.7-1.8-.2-.6-.4-1.3-.7-2.1a75 75 0 0 1-1.2-4.9c-.2-.9-.3-1.8-.5-2.8-.2-.9-.3-1.9-.4-2.9l-.3-3.1c-.3-4.2-.3-8.7-.1-13.1.2-4.5.6-8.9 1-13 .4-4.2.8-8 .9-11.4.1-1.7.1-3.2.1-4.5a35 35 0 0 0-.5-5.7c-.1-.4-.2-.6-.1-.6" data-index="65" style="opacity:.2;fill:url(#SVGID_00000052821121432953173890000011629638004907539113_)"/><radialGradient id="SVGID_00000143589785270422976300000010102822414639162514_" cx="258.04" cy="289.11" r="44.85" gradientTransform="rotate(-2.55 8819.5 99.7)scale(1 -1)" gradientUnits="userSpaceOnUse"><stop offset="0" style="stop-color:#e84724"/><stop offset=".32" style="stop-color:#e99123"/><stop offset="1" style="stop-color:#fff"/></radialGradient><path d="M306 65.3s-.3.4-1 1.1c-.6.7-1.6 1.7-2.8 3-1.2 1.2-2.8 2.8-4.5 4.4l-2.9 2.6c-1 .9-2.1 1.8-3.3 2.8l-1.8 1.5c-.6.5-1.2 1-1.9 1.5-1.3 1-2.6 2.1-4 3.1-2.8 2.1-5.8 4.1-9 6.2-1.6 1-3.2 2-4.9 3a132 132 0 0 0-5.1 2.9c-3.5 1.8-7.1 3.7-10.8 5.3l-2.8 1.2c-.9.4-1.9.7-2.8 1.1s-1.9.7-2.8 1.1c-.9.3-1.9.7-2.8 1s-1.9.6-2.8.9-1.9.5-2.8.8-1.9.5-2.8.7l-2.8.6c-3.7.8-7.4 1.1-10.8 1.5s-6.7.7-9.6 1.1c-3 .5-5.7 1-8 1.8-.6.2-1.1.3-1.7.5-.5.2-1.1.4-1.5.6-.5.2-1 .4-1.4.6s-.9.4-1.2.6c-.8.4-1.5.7-2.1 1s-1.1.6-1.5.8c-.8.5-1.3.7-1.3.7s.4-.3 1.2-.8c.4-.2.9-.6 1.5-.9.6-.4 1.3-.7 2.1-1.1l1.2-.6c.4-.2.9-.4 1.4-.6l1.5-.6c.5-.2 1.1-.4 1.7-.6 2.3-.8 5-1.5 8-2s6.2-.9 9.7-1.3 7-.9 10.7-1.6c.9-.2 1.8-.4 2.8-.6.9-.2 1.9-.4 2.8-.7s1.9-.5 2.8-.8 1.9-.6 2.8-.9 1.8-.7 2.8-1c.9-.4 1.9-.7 2.8-1.1s1.9-.7 2.8-1.1l2.7-1.2c3.7-1.6 7.3-3.4 10.8-5.2 1.7-1 3.4-1.9 5.1-2.8 1.6-1 3.3-2 4.9-3q4.8-3 9-6c1.4-1 2.8-2 4-3 .6-.5 1.3-1 1.9-1.4.6-.5 1.2-1 1.8-1.4q1.8-1.35 3.3-2.7c1-.9 2-1.7 3-2.5 1.8-1.6 3.4-3.1 4.7-4.3s2.2-2.2 2.9-2.9c.5-1 .8-1.4.8-1.3" data-index="66" style="opacity:.2;fill:url(#SVGID_00000143589785270422976300000010102822414639162514_)"/><radialGradient id="SVGID_00000039099566227538511450000006926207366793792698_" cx="257.16" cy="289.93" r="43.86" gradientTransform="rotate(-2.55 8819.5 99.7)scale(1 -1)" gradientUnits="userSpaceOnUse"><stop offset="0" style="stop-color:#e84724"/><stop offset=".32" style="stop-color:#e99123"/><stop offset="1" style="stop-color:#fff"/></radialGradient><path d="M304.3 65.9s-.4.3-1 1c-.7.6-1.6 1.6-2.9 2.7-.6.6-1.4 1.2-2.1 1.9-.8.7-1.6 1.4-2.6 2.1-1.9 1.5-3.9 3.2-6.3 4.9-2.3 1.8-5 3.5-7.8 5.4-1.4.9-2.9 1.8-4.4 2.8-1.5.9-3.1 1.8-4.6 2.7-.8.5-1.6.9-2.4 1.4-.8.4-1.7.9-2.5 1.3s-1.7.9-2.5 1.3-1.7.9-2.6 1.3c-1.7.8-3.5 1.6-5.3 2.5l-2.7 1.2-2.7 1.1-2.7 1.1c-.9.3-1.8.6-2.8 1-1.8.6-3.7 1.3-5.5 1.9-1.9.5-3.7 1-5.5 1.5-.9.2-1.8.5-2.7.8l-2.7.6c-1.8.4-3.6.8-5.3 1.1-1.7.4-3.4.7-5.1 1-.8.2-1.6.3-2.4.5s-1.6.3-2.3.5c-.8.2-1.5.3-2.3.5-.7.2-1.5.4-2.2.5-2.8.7-5.4 1.4-7.7 2.2-1.1.4-2.2.7-3.1 1.1s-1.8.7-2.6 1.1c-1.5.7-2.8 1.3-3.6 1.7s-1.2.7-1.2.7.4-.2 1.2-.7 2-1.1 3.5-1.9c.8-.3 1.6-.7 2.6-1.1.9-.4 2-.8 3.1-1.2 2.2-.8 4.8-1.6 7.6-2.4.7-.2 1.4-.4 2.2-.6.7-.2 1.5-.4 2.3-.5s1.6-.4 2.4-.6 1.6-.3 2.4-.5c3.3-.7 6.7-1.4 10.3-2.2l2.7-.6c.9-.2 1.8-.5 2.7-.8 1.8-.5 3.6-1 5.5-1.6 1.8-.6 3.6-1.3 5.4-1.9.9-.3 1.8-.6 2.7-1l2.7-1.1 2.7-1.1c.9-.4 1.8-.7 2.7-1.1 1.8-.8 3.5-1.6 5.2-2.4.9-.4 1.7-.8 2.6-1.3s1.7-.9 2.5-1.3 1.7-.9 2.5-1.3c.8-.5 1.6-.9 2.4-1.4 1.6-.9 3.2-1.8 4.7-2.7s3-1.8 4.4-2.7c2.8-1.8 5.5-3.5 7.8-5.2 1.2-.8 2.3-1.6 3.4-2.4s2.1-1.5 3-2.3c.9-.7 1.8-1.4 2.6-2.1s1.5-1.2 2.2-1.8c1.3-1.1 2.3-2 3-2.6.8-.6 1.1-1 1.1-1" data-index="67" style="opacity:.2;fill:url(#SVGID_00000039099566227538511450000006926207366793792698_)"/><radialGradient id="SVGID_00000139995031428164831890000009195616437161872266_" cx="255.8" cy="289.64" r="42.52" gradientTransform="rotate(-2.55 8819.5 99.7)scale(1 -1)" gradientUnits="userSpaceOnUse"><stop offset="0" style="stop-color:#e84724"/><stop offset=".32" style="stop-color:#e99123"/><stop offset="1" style="stop-color:#fff"/></radialGradient><path d="M301.7 67.9s-1.5 1.2-4.1 3.1c-1.3.9-3 2.1-4.9 3.3-1 .6-2 1.3-3.1 2s-2.2 1.4-3.5 2.1c-1.2.7-2.5 1.5-3.8 2.2-1.3.8-2.7 1.5-4.1 2.3-2.8 1.6-5.9 3.1-9 4.7-1.6.7-3.2 1.5-4.9 2.3-1.6.7-3.4 1.4-5 2.2-1.7.8-3.4 1.4-5.2 2.1-.9.3-1.7.7-2.6 1l-2.6.9c-3.5 1.3-7.1 2.4-10.7 3.5-3.5 1.1-7 2.1-10.4 3.1s-6.6 2-9.7 3c-1.5.5-3 1-4.4 1.5s-2.8.9-4.1 1.4-2.6.9-3.8 1.4-2.3.9-3.4 1.3c-.5.2-1.1.4-1.6.6s-1 .4-1.4.6c-.9.4-1.7.8-2.5 1.1-1.5.7-2.6 1.3-3.4 1.7l-1.2.6 1.2-.6c.4-.2.9-.5 1.4-.8.6-.3 1.2-.7 1.9-1s1.6-.7 2.5-1.2c.4-.2.9-.4 1.4-.7l1.5-.6c1.1-.4 2.2-.9 3.4-1.4s2.5-.9 3.8-1.4 2.7-1 4.1-1.5 2.9-1 4.4-1.6c3.1-1 6.3-2.1 9.6-3.1 3.4-1.1 6.8-2.1 10.4-3.2 3.5-1.1 7.1-2.2 10.6-3.5l2.6-.9c.9-.3 1.7-.7 2.6-1 1.7-.7 3.5-1.3 5.2-2.1 1.7-.7 3.4-1.4 5-2.2s3.3-1.5 4.9-2.2c3.2-1.5 6.2-3 9.1-4.5 1.4-.7 2.8-1.5 4.1-2.2s2.6-1.4 3.8-2.1 2.4-1.4 3.5-2c1.1-.7 2.1-1.3 3.1-1.9 2-1.2 3.6-2.3 5-3.2 2.8-1.9 4.3-3 4.3-3.1" data-index="68" style="opacity:.2;fill:url(#SVGID_00000139995031428164831890000009195616437161872266_)"/><radialGradient id="SVGID_00000163767592942459760810000008613416984414855301_" cx="259.67" cy="292.41" r="39.77" gradientTransform="rotate(-2.55 8819.5 99.7)scale(1 -1)" gradientUnits="userSpaceOnUse"><stop offset="0" style="stop-color:#e84724"/><stop offset=".32" style="stop-color:#e99123"/><stop offset="1" style="stop-color:#fff"/></radialGradient><path d="M302.1 67.1s-.4.2-1.1.7c-.7.4-1.7 1.1-3 1.8q-1.95 1.2-4.8 2.7c-1.9 1-4 2.1-6.3 3.4-2.4 1.2-4.9 2.4-7.6 3.7s-5.6 2.6-8.6 3.9c-3 1.4-6.1 2.6-9.3 4-3.2 1.3-6.4 2.7-9.7 3.9s-6.6 2.5-9.8 3.7-6.4 2.3-9.5 3.3c-3.1 1.1-6.1 2.1-8.9 3-1.4.5-2.8 1-4.1 1.4-1.3.5-2.6.9-3.9 1.4-1.2.4-2.4.9-3.5 1.3s-2.2.8-3.2 1.2q-3 1.2-5.1 2.1c-1.4.6-2.5 1.2-3.2 1.5s-1.1.5-1.1.5.4-.2 1.1-.6 1.8-1 3.2-1.6 3.1-1.4 5.1-2.2 4.2-1.8 6.7-2.7c1.2-.5 2.5-.9 3.8-1.4s2.7-1 4.1-1.5c2.8-1 5.8-2.1 8.9-3.2s6.3-2.2 9.5-3.4 6.5-2.5 9.7-3.7c3.3-1.2 6.5-2.6 9.7-3.8 3.2-1.3 6.3-2.5 9.3-3.9 3-1.3 5.9-2.6 8.6-3.8 2.7-1.3 5.3-2.5 7.7-3.6 2.4-1.2 4.5-2.2 6.4-3.2s3.5-1.8 4.9-2.6c1.4-.7 2.4-1.3 3.1-1.7.6-.4 1-.6.9-.6" data-index="69" style="opacity:1;fill:url(#SVGID_00000163767592942459760810000008613416984414855301_)"/><radialGradient id="SVGID_00000129895029844473899220000007604345540944237711_" cx="258.69" cy="296.15" r="33.06" gradientTransform="rotate(-2.55 8819.5 99.7)scale(1 -1)" gradientUnits="userSpaceOnUse"><stop offset="0" style="stop-color:#e84724"/><stop offset=".32" style="stop-color:#e99123"/><stop offset="1" style="stop-color:#fff"/></radialGradient><path d="m205.9 100.5.6-.9c.4-.6 1-1.4 1.9-2.4.8-1 2-2.1 3.3-3.4 1.4-1.2 2.9-2.6 4.7-3.9s3.9-2.6 6.1-3.9c1.1-.6 2.3-1.2 3.5-1.9 1.2-.6 2.5-1.2 3.8-1.7s2.6-1.1 4-1.6c.7-.2 1.4-.5 2.1-.7l2.1-.6c2.8-.8 5.8-1.5 8.7-2.1 2.9-.5 5.9-1 8.8-1.4s5.8-.8 8.5-1.2c2.8-.4 5.4-.7 8-1s4.9-.7 7.1-1 4.2-.7 6-1 3.3-.6 4.6-.9c2.5-.6 4-.9 4-.9s-.4.1-1 .3-1.7.5-2.9.8c-1.3.3-2.8.7-4.6 1.1-.9.2-1.8.4-2.8.6s-2 .4-3.1.6a490 490 0 0 1-15.1 2.4l-8.5 1.2c-2.9.4-5.8 1-8.7 1.5-2.9.6-5.8 1.2-8.6 2l-2.1.6c-.7.2-1.4.5-2.1.7-1.3.4-2.6 1-3.9 1.5s-2.5 1.1-3.7 1.6c-1.2.6-2.4 1.2-3.5 1.8a58 58 0 0 0-14.3 10.6c-.9.9-1.6 1.7-2 2.3-.7.6-.9.9-.9.9" data-index="70" style="opacity:.2;fill:url(#SVGID_00000129895029844473899220000007604345540944237711_)"/><radialGradient id="SVGID_00000125591250665717109680000000882495085568949947_" cx="254.04" cy="293.29" r="30.16" gradientTransform="rotate(-2.55 8819.5 99.7)scale(1 -1)" gradientUnits="userSpaceOnUse"><stop offset="0" style="stop-color:#e84724"/><stop offset=".32" style="stop-color:#e99123"/><stop offset="1" style="stop-color:#fff"/></radialGradient><path d="m205.4 102.8.7-.7c.5-.4 1.1-1.1 2.1-1.8.4-.4 1-.8 1.5-1.2.6-.4 1.2-.9 1.8-1.4 1.3-1 2.8-2 4.5-3.2.8-.6 1.8-1.1 2.7-1.7s1.9-1.2 2.9-1.7 2.1-1.1 3.1-1.7c.5-.3 1.1-.6 1.6-.9.6-.2 1.1-.5 1.7-.8 1.2-.5 2.3-1 3.5-1.5.3-.1.6-.3.9-.4l.9-.3c.6-.2 1.2-.4 1.9-.7 1.2-.4 2.5-.9 3.8-1.3s2.6-.8 3.9-1.1c1.3-.4 2.6-.7 3.9-1.1l3.9-.9c1.3-.3 2.6-.6 3.8-.9 1.3-.3 2.5-.5 3.8-.8s2.4-.5 3.6-.7 2.4-.4 3.5-.6c2.3-.4 4.4-.8 6.4-1.1s3.8-.7 5.4-.9c1.6-.3 3-.5 4.1-.8 2.3-.5 3.6-.8 3.6-.8s-1.3.3-3.6 1c-1.1.3-2.5.6-4.1 1s-3.4.8-5.4 1.2c-3.9.8-8.5 1.7-13.4 2.8-1.2.3-2.5.5-3.7.8l-3.8.9-3.9.9c-1.3.4-2.6.7-3.8 1.1-1.3.4-2.6.7-3.8 1.1-1.3.4-2.5.9-3.8 1.3-.6.2-1.2.4-1.9.6l-.9.3c-.3.1-.6.2-.9.4-1.2.5-2.4 1-3.5 1.5-.6.2-1.1.5-1.7.7-.6.3-1.1.6-1.6.8-1.1.5-2.1 1.1-3.2 1.6-1 .5-2 1.1-2.9 1.6-.9.6-1.9 1-2.7 1.6-1.7 1.1-3.3 2-4.6 3-.7.5-1.3.9-1.9 1.3s-1.1.8-1.6 1.2c-.9.7-1.6 1.3-2.1 1.7s-.7.6-.7.6" data-index="71" style="opacity:.2;fill:url(#SVGID_00000125591250665717109680000000882495085568949947_)"/><radialGradient id="SVGID_00000177448345227599176010000010314643301857618104_" cx="250.89" cy="290.46" r="28.51" gradientTransform="rotate(-2.55 8819.5 99.7)scale(1 -1)" gradientUnits="userSpaceOnUse"><stop offset="0" style="stop-color:#e84724"/><stop offset=".32" style="stop-color:#e99123"/><stop offset="1" style="stop-color:#fff"/></radialGradient><path d="M204.6 105.7s1.1-.7 3-1.8c1-.5 2.1-1.2 3.5-1.9 1.3-.7 2.9-1.6 4.6-2.4 1.7-.9 3.5-1.8 5.5-2.7s4-1.9 6.2-2.8c1.1-.5 2.2-1 3.3-1.4 1.1-.5 2.2-.9 3.4-1.4 2.3-1 4.6-1.9 7-2.8 2.3-.9 4.7-1.7 7.1-2.6 2.3-.8 4.6-1.6 6.9-2.3 2.2-.8 4.4-1.4 6.5-2s4-1.2 5.9-1.7c1.8-.5 3.5-1 5-1.3s2.8-.7 3.9-.9l3.4-.8s-1.2.3-3.3 1c-1.1.3-2.3.7-3.8 1.1s-3.1 1-4.9 1.5c-1.8.6-3.8 1.1-5.8 1.8s-4.2 1.4-6.4 2.1c-2.2.8-4.5 1.6-6.8 2.4-2.3.9-4.7 1.7-7 2.6s-4.7 1.8-7 2.7c-1.1.5-2.3.9-3.4 1.4s-2.2.9-3.3 1.4c-2.2.9-4.2 1.8-6.2 2.7s-3.8 1.7-5.5 2.5-3.2 1.6-4.6 2.2-2.6 1.3-3.6 1.8-1.7.9-2.3 1.2z" data-index="72" style="opacity:1;fill:url(#SVGID_00000177448345227599176010000010314643301857618104_)"/><radialGradient id="SVGID_00000136403604093189370880000017697744507231772036_" cx="202.23" cy="329.26" r="36.59" gradientTransform="rotate(-2.55 8819.5 99.7)scale(1 -1)" gradientUnits="userSpaceOnUse"><stop offset="0" style="stop-color:#e84724"/><stop offset=".32" style="stop-color:#e99123"/><stop offset="1" style="stop-color:#fff"/></radialGradient><path d="M201 4.1s.4 1.6.7 4.4.8 6.9 1.1 11.8c.1 2.5.2 5.1.1 7.9 0 1.4-.1 2.9-.1 4.3-.1 1.5-.1 3-.2 4.5s-.2 3.1-.4 4.7c-.1 1.6-.3 3.2-.5 4.8s-.4 3.2-.7 4.8-.5 3.2-.8 4.8c-.6 3.2-1.3 6.4-2.2 9.5-.2.8-.4 1.6-.6 2.3-.2.8-.4 1.5-.7 2.3s-.4 1.5-.7 2.3c-.2.7-.5 1.5-.7 2.2-.5 1.5-.9 2.9-1.5 4.3-.5 1.4-1 2.8-1.6 4.1-.5 1.3-1 2.6-1.6 3.8-.5 1.2-1.1 2.4-1.6 3.5s-1 2.2-1.5 3.2l-1.4 2.8c-1 1.8-1.8 3.3-2.5 4.5-1.5 2.4-2.3 3.9-2.3 3.9s.8-1.4 2.1-4c.7-1.2 1.4-2.8 2.3-4.6.5-.9.9-1.9 1.3-2.9s1-2.1 1.4-3.2 1-2.3 1.5-3.5 1-2.5 1.5-3.8 1-2.7 1.4-4.1c.2-.7.5-1.4.7-2.1s.5-1.4.7-2.2c.2-.7.5-1.5.7-2.2.2-.8.4-1.5.6-2.2l.6-2.3c.2-.8.4-1.6.6-2.3.8-3.1 1.5-6.3 2.1-9.5l.9-4.8c.2-1.6.5-3.2.7-4.8l.6-4.7c.2-1.6.3-3.1.4-4.6.2-3 .4-6 .5-8.8s.1-5.5 0-7.9c-.1-2.5-.1-4.7-.2-6.7s-.2-3.7-.4-5.1c-.1-2.8-.3-4.4-.3-4.4" data-index="73" style="opacity:.2;fill:url(#SVGID_00000136403604093189370880000017697744507231772036_)"/><radialGradient id="SVGID_00000101098746787190727070000010062864841708080531_" cx="201.06" cy="329.38" r="36.68" gradientTransform="rotate(-2.55 8819.5 99.7)scale(1 -1)" gradientUnits="userSpaceOnUse"><stop offset="0" style="stop-color:#e84724"/><stop offset=".32" style="stop-color:#e99123"/><stop offset="1" style="stop-color:#fff"/></radialGradient><path d="M201 4.1s0 1.6-.2 4.4q-.15 2.1-.3 5.1c-.1 1-.2 2-.2 3.1-.1 1.1-.2 2.3-.4 3.5-.2 2.4-.6 5-.9 7.8-.4 2.8-.7 5.7-1.2 8.6-.2 1.5-.5 3-.7 4.6-.3 1.5-.6 3.1-.8 4.7-.5 3.1-1.2 6.3-1.8 9.5l-.5 2.4-.6 2.4c-.4 1.6-.7 3.1-1.1 4.7-.7 3.1-1.6 6.1-2.3 9.1-.7 2.9-1.6 5.7-2.4 8.4s-1.6 5.2-2.3 7.5c-.8 2.3-1.4 4.4-2.1 6.3-.7 1.8-1.2 3.5-1.7 4.8-1 2.7-1.5 4.2-1.5 4.2s.5-1.5 1.3-4.2c.4-1.3.9-3 1.5-4.9q.45-1.35.9-3c.3-1.1.6-2.2 1-3.3q1.05-3.45 2.1-7.5c.4-1.3.7-2.7 1.1-4.1s.8-2.8 1.1-4.3c.7-2.9 1.5-6 2.2-9.1.4-1.5.7-3.1 1.1-4.7.2-.8.4-1.6.5-2.4l.5-2.4c.7-3.2 1.3-6.3 1.9-9.4.3-1.6.6-3.1.9-4.6s.5-3 .8-4.5c.5-3 .9-5.9 1.4-8.6.4-2.8.8-5.3 1.1-7.7s.6-4.6.8-6.6c.2-1.9.4-3.7.5-5.1q.15-2.1.3-3.3c.15-1.2 0-1.4 0-1.4" data-index="74" style="opacity:.2;fill:url(#SVGID_00000101098746787190727070000010062864841708080531_)"/><radialGradient id="SVGID_00000111905518405910607300000007799196020604365481_" cx="200.24" cy="329.92" r="36.2" gradientTransform="rotate(-2.55 8819.5 99.7)scale(1 -1)" gradientUnits="userSpaceOnUse"><stop offset="0" style="stop-color:#e84724"/><stop offset=".32" style="stop-color:#e99123"/><stop offset="1" style="stop-color:#fff"/></radialGradient><path d="M200.1 4.2s-.4 1.5-1.2 4.2c-.4 1.4-.8 3-1.3 4.9s-1.1 4-1.7 6.3-1.3 4.8-1.9 7.5c-.7 2.7-1.3 5.5-2.1 8.4q-1.05 4.35-2.1 9l-2.1 9.3c-.7 3.1-1.4 6.2-1.9 9.3q-.9 4.65-1.8 9c-.5 2.9-1.1 5.8-1.5 8.5s-.9 5.2-1.2 7.6a100 100 0 0 0-.9 6.5c-.3 1.9-.4 3.6-.6 5l-.6 4.3.3-4.4c.1-1.4.2-3.1.4-5s.5-4.1.7-6.5.7-4.9 1.1-7.7c.4-2.7.8-5.6 1.4-8.5.5-3 1.1-6 1.7-9.1s1.3-6.2 1.9-9.3l2.1-9.3c.7-3.1 1.5-6.1 2.2-9 .8-2.9 1.5-5.7 2.2-8.3s1.4-5.1 2.1-7.4c.6-2.3 1.3-4.4 1.9-6.3l1.5-4.8z" data-index="75" style="opacity:.2;fill:url(#SVGID_00000111905518405910607300000007799196020604365481_)"/><radialGradient id="SVGID_00000100367456595529765520000007583340164088928676_" cx="199.2" cy="332.24" r="34.8" gradientTransform="rotate(-2.55 8819.5 99.7)scale(1 -1)" gradientUnits="userSpaceOnUse"><stop offset="0" style="stop-color:#e84724"/><stop offset=".32" style="stop-color:#e99123"/><stop offset="1" style="stop-color:#fff"/></radialGradient><path d="M199.3 4.2s-.2.3-.5 1c-.4.6-.8 1.6-1.4 2.8s-1.3 2.7-2.1 4.4l-1.2 2.7c-.4 1-.8 2-1.3 3.1-.2.5-.4 1.1-.7 1.6-.2.6-.4 1.1-.6 1.7-.4 1.2-.9 2.4-1.4 3.6-.4 1.3-.9 2.5-1.3 3.9-.2.7-.5 1.3-.7 2s-.4 1.4-.6 2c-.4 1.4-.9 2.8-1.3 4.2l-1.2 4.3-.6 2.2-.3 1.1-.3 1.1c-.3 1.5-.7 3-1 4.5l-.5 2.2c-.1.8-.3 1.5-.4 2.3l-.9 4.5c-.3 1.5-.5 3-.7 4.5l-.6 4.4-.3 2.1c-.1.7-.1 1.4-.2 2.1-.1 1.4-.3 2.7-.4 4.1-.3 2.6-.4 5.2-.5 7.5-.1 1.2-.1 2.3-.2 3.3-.1 1.1-.1 2.1-.1 3v9.2s-.1-1.6-.2-4.2c-.1-1.3-.1-3-.2-4.9-.1-.9 0-1.9 0-3s.1-2.2.1-3.3c.1-2.3.1-4.8.3-7.5l.3-4.1c.1-1.4.2-2.8.4-4.3l.6-4.4c.2-1.5.4-3 .7-4.5s.6-3 .8-4.5c.1-.8.3-1.5.4-2.3l.5-2.3c.4-1.5.7-3 1.1-4.5l.3-1.1.3-1.1.6-2.2 1.2-4.4c.5-1.4.9-2.8 1.4-4.2.2-.7.4-1.4.7-2.1.2-.7.5-1.3.7-2 .5-1.3 1-2.6 1.4-3.9l1.5-3.6c.2-.6.5-1.1.7-1.7.2-.5.5-1.1.7-1.6.5-1.1.9-2.1 1.4-3.1.5-.9.9-1.9 1.3-2.7.8-1.7 1.6-3.1 2.2-4.3 1.3-2.3 2.1-3.6 2.1-3.6" data-index="76" style="opacity:.2;fill:url(#SVGID_00000100367456595529765520000007583340164088928676_)"/><linearGradient id="SVGID_00000031184997601993282240000018033986504940325788_" x1="107.26" x2="109.6" y1="257.44" y2="237.37" gradientTransform="rotate(-2.55 8819.5 99.7)scale(1 -1)" gradientUnits="userSpaceOnUse"><stop offset="0" style="stop-color:#fddd00"/><stop offset=".43" style="stop-color:#e89823"/><stop offset="1" style="stop-color:#f05722"/></linearGradient><path d="M103.6 145.8c-28.7 3.7-48.4-8.2-48.4-8.2 18.3 12.1 36.8 15.6 56.9 10.4 20.2-5.2 30.4-2.4 33.6 4.4 1.3 2.7 2.1 5.2 2.6 7.3l2.1-1.2c-5.3-19.3-18.6-16.3-46.8-12.7" data-index="77" style="opacity:1;fill:url(#SVGID_00000031184997601993282240000018033986504940325788_)"/><radialGradient id="SVGID_00000178912336452013648910000008387736974541708440_" cx="170.88" cy="336.09" r="110.06" gradientTransform="rotate(-2.55 8819.5 99.7)scale(1 -1)" gradientUnits="userSpaceOnUse"><stop offset=".16" style="stop-color:#e89d23"/><stop offset=".63" style="stop-color:#e45025"/><stop offset=".73" style="stop-color:#da4724"/><stop offset=".89" style="stop-color:#bf3223"/><stop offset="1" style="stop-color:#a92023"/></radialGradient><path d="M143 68.8c-1.4 31.4-4.3 57.9 12.6 87.2 1.2-.5 2.5-1 3.7-1.5-19.1-30.8-11.8-60.7-11.4-84.4.6-35.3-19.3-61.1-19.3-61.1s15.9 26 14.4 59.8" data-index="78" style="opacity:.5;fill:url(#SVGID_00000178912336452013648910000008387736974541708440_)"/><linearGradient id="SVGID_00000100365092745184274150000004549097456438331054_" x1="182.55" x2="164.07" y1="310.7" y2="307.06" gradientTransform="rotate(-2.55 8819.5 99.7)scale(1 -1)" gradientUnits="userSpaceOnUse"><stop offset="0" style="stop-color:#fddd00"/><stop offset=".43" style="stop-color:#e89823"/><stop offset="1" style="stop-color:#f05722"/></linearGradient><path d="M164.4 93.7C149.3 54.1 159.8.3 159.8.3s-11.9 41.1-3.9 81.8c7 35.5 16 32.6 14.8 42.4-.9 7.7-6.3 22.9-8.6 29 1.9-.6 3.7-1.1 5.7-1.6.3-1.9.8-3.9 1.5-6.3 7.8-25.4 10.2-12.3-4.9-51.9" data-index="79" style="opacity:.4;fill:url(#SVGID_00000100365092745184274150000004549097456438331054_)"/><radialGradient id="SVGID_00000178918748037360931640000000446174861246214052_" cx="202.52" cy="327.16" r="65.83" gradientTransform="rotate(-2.55 8819.5 99.7)scale(1 -1)" gradientUnits="userSpaceOnUse"><stop offset=".16" style="stop-color:#e89d23"/><stop offset=".63" style="stop-color:#e45025"/><stop offset=".73" style="stop-color:#da4724"/><stop offset=".89" style="stop-color:#bf3223"/><stop offset="1" style="stop-color:#a92023"/></radialGradient><path d="M179.3 106.8c.9 2.6 1.8 4.8 2.5 6.7 5.8-14 13.2-19.2 20.5-46.5 8.8-33-1-67-1-67s6.2 67.2-22 106.8" data-index="80" style="opacity:.4;fill:url(#SVGID_00000178918748037360931640000000446174861246214052_)"/><radialGradient id="SVGID_00000110443277580955256120000016144641148320730277_" cx="251.01" cy="311.09" r="70.86" gradientTransform="rotate(-2.55 8819.5 99.7)scale(1 -1)" gradientUnits="userSpaceOnUse"><stop offset=".16" style="stop-color:#e89d23"/><stop offset=".63" style="stop-color:#e45025"/><stop offset=".73" style="stop-color:#da4724"/><stop offset=".89" style="stop-color:#bf3223"/><stop offset="1" style="stop-color:#a92023"/></radialGradient><path d="M185.5 122.5c.7 1.8 1 2.9.8 3.8 3.3-2.3 8.4-5.6 12.7-7.8 20.6-10.2 26.2 1.3 57.6-14.5C288.1 88.2 306 65.3 306 65.3s-31.9 29.2-64.4 37.8c-30.6 8.1-39.7 7.3-56.1 19.4" data-index="81" style="opacity:1;fill:url(#SVGID_00000110443277580955256120000016144641148320730277_)"/><linearGradient id="SVGID_00000129185976394402757480000003091144348890730629_" x1="200.73" x2="234.44" y1="228.59" y2="173.47" gradientTransform="rotate(-2.55 8819.5 99.7)scale(1 -1)" gradientUnits="userSpaceOnUse"><stop offset="0" style="stop-color:#2d8741"/><stop offset=".37" style="stop-color:#00493e"/><stop offset=".77" style="stop-color:#062036"/><stop offset="1" style="stop-color:#06172d"/></linearGradient><path d="M133.6 195.7c-2.9.1-6.7 29.2-15.7 31.6 3.2 7.8 8.5 17.3 9.8 19.6-.7-36.8 8-45.6 8-45.6s35.8 6.6 89.3-9.6c59.5-18.1 84.9-35.9 93.5-43.3 0 0-18.7 15.1-88.3 35.3-55.6 16.1-94.7 11.9-96.6 12" data-index="82" style="opacity:1;fill:url(#SVGID_00000129185976394402757480000003091144348890730629_)"/><radialGradient id="SVGID_00000044866856455451783990000005918070535740369030_" cx="164.08" cy="340.94" r="163.8" gradientTransform="rotate(-2.55 8819.5 99.7)scale(1 -1)" gradientUnits="userSpaceOnUse"><stop offset=".16" style="stop-color:#e89d23"/><stop offset=".63" style="stop-color:#e45025"/><stop offset=".73" style="stop-color:#da4724"/><stop offset=".89" style="stop-color:#bf3223"/><stop offset="1" style="stop-color:#a92023"/></radialGradient><path d="M187.8 158c-47.1 2.2-63.2 29.5-67.8 50.6-1.8 8.2-3.3 12.3-4.3 13.2.7 1.8 1.5 3.7 2.3 5.6 1.4-12.1 6.5-32.8 23.9-47.3 38.4-31.9 139.1-14.6 198.4-37.7 2.6-2.2 3.7-3.5 3.7-3.5-15.1 11.3-65.3 14.7-156.2 19.1" data-index="83" style="opacity:1;fill:url(#SVGID_00000044866856455451783990000005918070535740369030_)"/><path d="M147.5 223.9h2v17.6h7.8v1.9h-9.9v-19.5z" class="st84" data-index="84"/><path d="M163.5 223.9h10v1.9h-8v6.5h6.1v1.9h-6.1v7.3h8.1v1.9h-10.2v-19.5z" class="st84" data-index="85"/><path d="M180.1 223.9h2v19.5h-2z" class="st84" data-index="86"/><path d="M189 233.7c0-5.7 4.4-10.1 9.7-10.1 2.9 0 5.5 1.3 7.3 3.4l-1.5 1.3a7.6 7.6 0 0 0-5.8-2.7c-4.3 0-7.5 3.4-7.5 8 0 4.7 3.2 8.1 7.6 8.1 2.4 0 4.4-1 5.8-2.7l1.5 1.2a9.6 9.6 0 0 1-7.4 3.4c-5.5 0-9.7-4.3-9.7-9.9" class="st84" data-index="87" style="opacity:1"/><path d="M212.4 223.9h2v8.7h10.5v-8.7h2v19.5h-2v-8.9h-10.5v8.9h-2z" class="st84" data-index="88"/><path d="M235 223.9h2v8.7h10.5v-8.7h2v19.5h-2v-8.9H237v8.9h-2z" class="st84" data-index="89"/><path d="M262.9 223.3h.6l7.4 20.1h-2.2l-1.8-5.1h-7.4l-1.8 5.1h-2.1zm3.2 13-3-8.4-3 8.4z" class="st84" data-index="90"/><path d="M276.8 223.9h4.7c3.9 0 6.7 2.4 6.7 5.7 0 2.7-1.8 4.8-4.4 5.5l5.6 8.3H287l-5.4-8H279v8h-2v-19.5zm4.6 9.5c2.8 0 4.7-1.5 4.7-3.9 0-2.3-1.9-3.8-4.7-3.8h-2.6v7.7z" class="st84" data-index="91"/><path d="M295.5 223.9h6.4c6 0 10.3 4.1 10.3 9.7s-4.4 9.7-10.3 9.7h-6.4zm6.4 17.6c4.8 0 8.2-3.3 8.2-7.8 0-4.6-3.4-7.8-8.2-7.8h-4.3v15.7h4.3z" class="st84" data-index="92"/><path d="M322.4 225.8H316v-1.9h14.8v1.9h-6.4v17.6h-2z" class="st84" data-index="93"/><path d="M5.3 258.2h12.8c12 0 20.8 8.3 20.8 19.6 0 11.2-8.8 19.6-20.8 19.6H5.3zM18 293.5c9.6 0 16.5-6.7 16.5-15.8 0-9.2-6.9-15.8-16.5-15.8H9.3v31.5H18z" class="st84" data-index="94"/><path d="M52.1 258.2h20.2v3.8H56.2v13.1h12.3v3.8H56.2v14.6h16.4v3.8H52.1z" class="st84" data-index="95" style="opacity:1"/><path d="M88.6 266.9v30.4h-4V257h1.2l26.4 31.6v-30.4h4v40.3H115z" class="st84" data-index="96" style="opacity:1"/><path d="M140.4 262h-12.9v-3.8h29.8v3.8h-12.9v35.3h-4.1V262z" class="st84" data-index="97" style="opacity:1"/><path d="M175.1 257h1.2l14.9 40.3h-4.5L183 287h-14.8l-3.7 10.3h-4.3zm6.5 26.2-6.1-16.9-6.1 16.9z" class="st84" data-index="98"/><path d="M202.4 258.2h4.1v35.3h15.8v3.8h-19.9z" class="st84" data-index="99" style="opacity:1"/><path d="M252.4 278c0-11.5 8.8-20.4 19.6-20.4 5.8 0 11.1 2.6 14.7 6.8l-3.1 2.6c-3-3.5-7.1-5.4-11.7-5.4-8.7 0-15.1 6.8-15.1 16.1s6.5 16.2 15.3 16.2c4.8 0 8.9-2.1 11.7-5.4l2.9 2.5c-3.6 4.3-8.8 6.9-14.9 6.9-11.1 0-19.4-8.7-19.4-19.9" class="st84" data-index="100" style="opacity:1"/><path d="M298.9 258.2h20.2v3.8H303v13.1h12.3v3.8H303v14.6h16.4v3.8H299v-39.1z" class="st84" data-index="101" style="opacity:1"/><path d="M335.4 266.9v30.4h-4V257h1.2l26.4 31.6v-30.4h4v40.3h-1.2z" class="st84" data-index="102" style="opacity:1"/><path d="M387.2 262h-12.9v-3.8h29.8v3.8h-12.9v35.3h-4.1V262z" class="st84" data-index="103" style="opacity:1"/><path d="M415.4 258.2h9.3c7.8 0 13.4 4.8 13.4 11.5 0 5.4-3.6 9.7-8.8 11l11.2 16.6h-4.9l-10.9-16.1h-5.3v16.1h-4.1v-39.1zm9.4 19.2c5.6 0 9.3-3 9.3-7.8 0-4.6-3.7-7.7-9.3-7.7h-5.3v15.4h5.3z" class="st84" data-index="104" style="opacity:1"/><path d="M452.6 258.2h20.2v3.8h-16.1v13.1H469v3.8h-12.3v14.6h16.4v3.8h-20.4v-39.1z" class="st84" data-index="105"/><path d="M7.6 313.9h1.8v17.4H7.6z" class="st84" data-index="106"/><path d="M16.5 313.4h.5l7.7 10.9 7.6-10.9h.5v17.9H31v-13l-6 8.7h-.5l-6.1-8.6v12.9h-1.8v-17.9z" class="st84" data-index="107"/><path d="M40.1 313.9h4.2c3.5 0 6 2.2 6 5.3s-2.5 5.3-6 5.3H42v6.9h-1.8v-17.5zm4.2 8.8c2.5 0 4.2-1.4 4.2-3.6 0-2.1-1.7-3.5-4.2-3.5H42v7.1z" class="st84" data-index="108"/><path d="M55.8 313.9h1.8v15.7h7v1.7h-8.8z" class="st84" data-index="109"/><path d="M76 313.4h.5l6.6 17.9h-2l-1.6-4.6h-6.6l-1.6 4.6h-1.9zm2.9 11.7-2.7-7.5-2.7 7.5z" class="st84" data-index="110" style="opacity:1"/><path d="M90.2 317.8v13.5h-1.8v-17.9h.6l11.8 14.1V314h1.8v17.9h-.6z" class="st84" data-index="111"/><path d="M113.6 315.6h-5.7v-1.7h13.3v1.7h-5.7v15.7h-1.8v-15.7z" class="st84" data-index="112"/><g class="st84"><path d="m124.8 328.3 1.4-1.1c1.2 1.8 2.6 2.8 4.4 2.8 2 0 3.4-1.2 3.4-3 0-1.6-1.1-2.7-3.6-3.7-3.1-1.2-4.5-2.8-4.5-5 0-2.7 1.9-4.5 4.7-4.5 2 0 3.6.9 4.9 2.7l-1.4 1.1c-1-1.5-2.2-2.1-3.6-2.1-1.8 0-2.9 1.1-2.9 2.7 0 1.5 1 2.6 3.4 3.5 3.1 1.2 4.6 2.9 4.6 5.2 0 2.9-2.2 4.9-5.3 4.9-2.1-.2-4.2-1.4-5.5-3.5" data-index="113"/><path d="M152.9 323.7h-4.1V322h4.1v-4h1.7v4h4.1v1.7h-4.1v4.2h-1.7z" data-index="114"/></g><path d="M177.8 313.4h.5l6.6 17.9h-2l-1.6-4.6h-6.6l-1.6 4.6h-1.9zm2.9 11.7-2.7-7.5-2.7 7.5z" class="st84" data-index="115"/><path d="M190.3 313.9h9v1.7h-7.2v5.8h5.5v1.7h-5.5v6.5h7.3v1.7h-9.1z" class="st84" data-index="116"/><path d="m203.9 328.3 1.4-1.1c1.2 1.8 2.6 2.8 4.4 2.8 2 0 3.4-1.2 3.4-3 0-1.6-1.1-2.7-3.6-3.7-3.1-1.2-4.5-2.8-4.5-5 0-2.7 1.9-4.5 4.7-4.5 2 0 3.6.9 4.9 2.7l-1.4 1.1c-1-1.5-2.2-2.1-3.6-2.1-1.8 0-2.9 1.1-2.9 2.7 0 1.5 1 2.6 3.4 3.5 3.1 1.2 4.6 2.9 4.6 5.2 0 2.9-2.2 4.9-5.3 4.9-2.1-.2-4.2-1.4-5.5-3.5" class="st84" data-index="117"/><path d="M225.3 315.6h-5.7v-1.7h13.3v1.7h-5.7v15.7h-1.8v-15.7z" class="st84" data-index="118" style="opacity:1"/><g class="st84"><path d="M238.1 313.9h1.8v7.8h9.4v-7.8h1.8v17.4h-1.8v-7.9h-9.4v7.9h-1.8z" data-index="119"/><path d="M258.4 313.9h9v1.7h-7.2v5.8h5.5v1.7h-5.5v6.5h7.3v1.7h-9.1z" data-index="120"/></g><path d="M278 315.6h-5.7v-1.7h13.3v1.7h-5.7v15.7H278z" class="st84" data-index="121"/><path d="M290.8 313.9h1.8v17.4h-1.8z" class="st84" data-index="122"/><path d="M298.8 322.7c0-5.1 3.9-9.1 8.7-9.1 2.6 0 4.9 1.2 6.6 3l-1.4 1.2a6.7 6.7 0 0 0-5.2-2.4c-3.9 0-6.7 3-6.7 7.2s2.9 7.2 6.8 7.2c2.2 0 4-.9 5.2-2.4l1.3 1.1a8.5 8.5 0 0 1-6.6 3.1c-5 0-8.7-3.9-8.7-8.9" class="st84" data-index="123"/><path d="M328.5 313.9h5.7c5.3 0 9.3 3.7 9.3 8.7s-3.9 8.7-9.3 8.7h-5.7zm5.7 15.7c4.3 0 7.3-3 7.3-7 0-4.1-3.1-7-7.3-7h-3.8v14z" class="st84" data-index="124"/><path d="M349.6 313.9h9v1.7h-7.2v5.8h5.5v1.7h-5.5v6.5h7.3v1.7h-9.1z" class="st84" data-index="125"/><path d="M366.2 317.8v13.5h-1.8v-17.9h.5l11.8 14.1V314h1.8v17.9h-.5z" class="st84" data-index="126"/><path d="M389.5 315.6h-5.7v-1.7H397v1.7h-5.7v15.7h-1.8z" class="st84" data-index="127"/><path d="M402.3 313.9h1.8v17.4h-1.8z" class="st84" data-index="128"/><path d="m409.7 328.3 1.4-1.1c1.2 1.8 2.6 2.8 4.4 2.8 2 0 3.4-1.2 3.4-3 0-1.6-1.1-2.7-3.6-3.7-3.1-1.2-4.5-2.8-4.5-5 0-2.7 1.9-4.5 4.7-4.5 2 0 3.6.9 4.9 2.7l-1.4 1.1c-1-1.5-2.2-2.1-3.6-2.1-1.8 0-2.9 1.1-2.9 2.7 0 1.5 1 2.6 3.4 3.5 3.1 1.2 4.6 2.9 4.6 5.2 0 2.9-2.2 4.9-5.3 4.9-2.1-.2-4.2-1.4-5.5-3.5" class="st84" data-index="129"/><path d="M431 315.6h-5.7v-1.7h13.3v1.7h-5.7v15.7H431z" class="st84" data-index="130"/><path d="M443.9 313.9h4.2c3.5 0 6 2.1 6 5.1 0 2.4-1.6 4.3-3.9 4.9l5 7.4H453l-4.8-7.2h-2.3v7.2h-1.8v-17.4zm4.1 8.6c2.5 0 4.2-1.4 4.2-3.5s-1.7-3.4-4.2-3.4h-2.3v6.9z" class="st84" data-index="131" style="opacity:1"/><path d="m463.5 324.6-5.3-10.7h2.1l4.3 8.6 4.4-8.6h1.9l-5.5 10.7v6.8h-1.8v-6.8z" class="st84" data-index="132"/></g></g></svg>